<svg xmlns="http://www.w3.org/2000/svg" viewBox="0 0 43.2611 7.9565"><title>00-Anaconda</title><g id="Calque_2" data-name="Calque 2"><g id="Calque_4" data-name="Calque 4"><path d="M11.4842,1.6617a.1046.1046,0,0,0-.1041-.0708H11.319a.11.11,0,0,0-.1041.0708L9.3122,5.9951a.1132.1132,0,0,0,.104.1674h.5324a.1853.1853,0,0,0,.1773-.1287l.3-.6954h1.8291l.3.6954c.043.09.0857.1287.1777.1287h.5322a.1131.1131,0,0,0,.1038-.1674Zm-.7587,2.9619.6-1.4166h.0182l.6119,1.4166Z" style="fill:#2cb34a"/><path d="M17.3167,1.6554h-.5629a.1194.1194,0,0,0-.1163.1222V4.437h-.0061L14.0863,1.5908h-.1527a.1179.1179,0,0,0-.1164.116V6.04a.1234.1234,0,0,0,.1164.1221H14.49a.1192.1192,0,0,0,.1161-.1221V3.2715h.0061L17.17,6.2269h.1468a.1179.1179,0,0,0,.1161-.116V1.7776a.1235.1235,0,0,0-.1161-.1222" style="fill:#2cb34a"/><path d="M20.0653,1.6617a.1039.1039,0,0,0-.1038-.0708H19.9a.11.11,0,0,0-.1038.0708L17.8936,5.9951a.1132.1132,0,0,0,.104.1674H18.53a.1853.1853,0,0,0,.1772-.1287l.3-.6954h1.8291l.3.6954c.0429.09.0857.1287.1775.1287h.5323a.1133.1133,0,0,0,.1041-.1674Zm-.7584,2.9619.6-1.4166h.0182l.6119,1.4166Z" style="fill:#2cb34a"/><path d="M25.2943,5.0163a.1085.1085,0,0,0-.1529,0,1.3756,1.3756,0,0,1-2.3066-1.12,1.4284,1.4284,0,0,1,1.3645-1.5,1.4075,1.4075,0,0,1,.9421.38.095.095,0,0,0,.1529,0l.3733-.4056a.1241.1241,0,0,0-.0061-.18,2.0148,2.0148,0,0,0-1.4806-.5988,2.2637,2.2637,0,0,0-2.2086,2.3244,2.2523,2.2523,0,0,0,2.2086,2.3114,2.045,2.045,0,0,0,1.4867-.6246.1271.1271,0,0,0,.0059-.1738Z" style="fill:#2cb34a"/><path d="M28.1853,1.5909A2.2537,2.2537,0,0,0,25.989,3.9153a2.2021,2.2021,0,1,0,4.3987,0,2.2586,2.2586,0,0,0-2.2024-2.3244m0,3.7989a1.4429,1.4429,0,0,1-1.4011-1.4745,1.4065,1.4065,0,1,1,2.8083,0A1.448,1.448,0,0,1,28.1853,5.39" style="fill:#2cb34a"/><path d="M34.5566,1.6554h-.5629a.1193.1193,0,0,0-.1161.1222V4.437h-.0063L31.3262,1.5908h-.1527a.1179.1179,0,0,0-.1164.116V6.04a.1234.1234,0,0,0,.1164.1221H31.73a.1193.1193,0,0,0,.1163-.1221V3.2715h.0059L34.41,6.2269h.1468a.118.118,0,0,0,.1163-.116V1.7776a.1237.1237,0,0,0-.1163-.1222" style="fill:#2cb34a"/><path d="M37.0109,1.6553h-1.45a.1185.1185,0,0,0-.11.1225V6.04a.1186.1186,0,0,0,.11.1224h1.45a2.2087,2.2087,0,0,0,2.1475-2.26,2.2054,2.2054,0,0,0-2.1475-2.2472M36.9375,5.377H36.24V2.4344h.6973A1.3868,1.3868,0,0,1,38.314,3.9025,1.3887,1.3887,0,0,1,36.9375,5.377" style="fill:#2cb34a"/><path d="M43.2489,5.9951,41.3643,1.6617a.1039.1039,0,0,0-.1038-.0708h-.0614a.11.11,0,0,0-.1038.0708L39.1926,5.9951a.1132.1132,0,0,0,.104.1674h.5324a.1853.1853,0,0,0,.1772-.1287l.3-.6954h1.8291l.3.6954c.0429.09.0857.1287.1775.1287h.5323a.1133.1133,0,0,0,.1041-.1674m-2.643-1.3715.5994-1.4166h.0184l.6119,1.4166Z" style="fill:#2cb34a"/><path d="M1.405,6.09l.0007-.0291a5.9128,5.9128,0,0,1,.0523-.683l.0029-.0208L1.4421,5.35a5.1889,5.1889,0,0,1-.5849-.2972L.8333,5.0384l-.012.0253a5.5106,5.5106,0,0,0-.31.8243l-.008.0266.0257.0074a4.8763,4.8763,0,0,0,.8482.1655Z" style="fill:#2cb34a"/><path d="M1.99,2.0554l.0012-.0069a4.76,4.76,0,0,0-.4917.0349q.0316.2611.0874.5175A2.709,2.709,0,0,1,1.99,2.0554" style="fill:#2cb34a"/><path d="M1.405,6.2972l0-.0241-.023-.0024a5.0108,5.0108,0,0,1-.7255-.1275l-.0634-.016.0359.0572a3.9568,3.9568,0,0,0,.79.913l.05.0423L1.46,7.073a7.4835,7.4835,0,0,1-.055-.7758" style="fill:#2cb34a"/><path d="M2.5808.2144a3.6893,3.6893,0,0,0-.83.4245,5.0891,5.0891,0,0,1,.574.1418A5.75,5.75,0,0,1,2.5808.2144" style="fill:#2cb34a"/><path d="M3.8047,0a3.629,3.629,0,0,0-.4308.0265A5.4681,5.4681,0,0,1,3.9474.51L4.0979.656,3.95.8052a5.18,5.18,0,0,0-.3547.4L3.59,1.2117c-.0013.0014-.0225.0263-.0577.0715a2.4525,2.4525,0,0,1,.2724-.0153A2.6454,2.6454,0,0,1,6.38,3.9782a2.6454,2.6454,0,0,1-2.5754,2.71,2.47,2.47,0,0,1-1.3462-.4,5.0376,5.0376,0,0,1-.5822.0344q-.1356,0-.2713-.0074a7.3737,7.3737,0,0,0,.0839.9592,3.63,3.63,0,0,0,2.1158.6813,3.8829,3.8829,0,0,0,3.78-3.9783A3.8829,3.8829,0,0,0,3.8047,0" style="fill:#2cb34a"/><path d="M3.3036.94c.0752-.0939.1531-.1848.2324-.2721a5.0175,5.0175,0,0,0-.56-.434A5.3225,5.3225,0,0,0,2.6619.897a5.22,5.22,0,0,1,.499.2243c.0752-.1016.1277-.1635.1427-.181" style="fill:#2cb34a"/><path d="M.7378,3.21l.0146.0246.0225-.0169a5.2419,5.2419,0,0,1,.5473-.3626l.0178-.01-.005-.0205A5.7421,5.7421,0,0,1,1.2073,2.13l-.0034-.0283-.0268.0051a4.8359,4.8359,0,0,0-.8219.2341L.33,2.3505l.01.0259A5.4723,5.4723,0,0,0,.7378,3.21" style="fill:#2cb34a"/><path d="M.6945,3.5958.6729,3.614A5.1977,5.1977,0,0,0,.1,4.1894l-.0174.02.0195.0182a5.1142,5.1142,0,0,0,.6285.4933l.0227.0153.0134-.0249A5.636,5.636,0,0,1,1.1,4.1666l.0121-.0176-.0139-.0163A5.5776,5.5776,0,0,1,.71,3.62Z" style="fill:#2cb34a"/><path d="M2.1768,6.1039,2.2425,6.1l-.0509-.044a2.6444,2.6444,0,0,1-.52-.6084L1.67,5.44l-.042-.0193-.0048.0375a5.8412,5.8412,0,0,0-.0443.62l0,.0261.0245.0017q.1347.0075.2707.0074.1513,0,.3026-.0093" style="fill:#2cb34a"/><path d="M2.0508,1.71A5.8753,5.8753,0,0,1,2.2021,1.13,4.7579,4.7579,0,0,0,1.4768.97a5.5386,5.5386,0,0,0-.0079.7769A5.1041,5.1041,0,0,1,2.0508,1.71" style="fill:#2cb34a"/><path d="M2.4156,1.6965a2.5092,2.5092,0,0,1,.5292-.2733q-.1993-.0987-.4067-.1789-.0709.2235-.1225.4522" style="fill:#2cb34a"/><path d="M.6569,4.9276l-.02-.0131a5.3287,5.3287,0,0,1-.5615-.4271l-.0506-.044.0086.0684A4.1558,4.1558,0,0,0,.3317,5.6161l.0266.0622L.38,5.6137A5.73,5.73,0,0,1,.6462,4.95Z" style="fill:#2cb34a"/><path d="M1.1431,1.1538a3.9806,3.9806,0,0,0-.5866.79A5.1388,5.1388,0,0,1,1.15,1.7959a5.9244,5.9244,0,0,1-.0069-.6421" style="fill:#2cb34a"/><path d="M1.255,3.9424l.0025-.0687a2.807,2.807,0,0,1,.1172-.709l.02-.0667-.0575.0349a5.176,5.176,0,0,0-.4333.2951l-.02.0158.0143.0217c.0975.1461.2034.2891.3147.425Z" style="fill:#2cb34a"/><path d="M1.28,4.3529l-.0091-.0672-.0373.0553a5.4251,5.4251,0,0,0-.2913.4825L.93,4.847.9526,4.86a4.9141,4.9141,0,0,0,.4943.2563l.06.0273L1.48,5.0808a2.7907,2.7907,0,0,1-.2-.7279" style="fill:#2cb34a"/><path d="M.5446,3.4015l.018-.0151-.012-.02a5.6734,5.6734,0,0,1-.32-.6227L.2034,2.68l-.02.066a4.1851,4.1851,0,0,0-.1813,1.117L0,3.9333l.0459-.05a5.4585,5.4585,0,0,1,.4987-.4813" style="fill:#2cb34a"/></g></g></svg>