<svg xmlns="http://www.w3.org/2000/svg" viewBox="0 0 36.8447 35.5347"><path d="M19.8818,8.3758V.9771H9.6714A3.2082,3.2082,0,0,0,6.4726,4.1759V27.6783a3.2081,3.2081,0,0,0,3.1988,3.1988H27.2329a3.2082,3.2082,0,0,0,3.1988-3.1988V11.5746H23.0806A3.2082,3.2082,0,0,1,19.8818,8.3758Z" style="fill:none;stroke:#000;stroke-linejoin:round;stroke-width:1.95428428707763px"/><line x1="19.8818" y1="0.9771" x2="30.4555" y2="11.5508" style="fill:none;stroke:#000;stroke-linejoin:round;stroke-width:1.95428428707763px"/><rect y="5.907" width="16.1948" height="17.0887" style="fill:#fff"/><path d="M20.3292,26.3928H24.002V18.63a1.1822,1.1822,0,0,1,1.1807-1.1807h6.208a1.1833,1.1833,0,0,1,1.1807,1.1753l.0351,7.7681h3.4029l-7.6367,8.5855Z" style="fill:#e12229"/><path d="M31.3905,17.8243a.8058.8058,0,0,1,.8058.8021l.0366,8.1415h2.9409l-6.8084,7.6544-7.171-7.6544h3.1827V18.63a.8057.8057,0,0,1,.8057-.8057h6.2077m0-.75H25.1828A1.5575,1.5575,0,0,0,23.6271,18.63v7.3879h-4.163l1.183,1.2628,7.171,7.6545.5617.5995.546-.6139,6.8084-7.6545,1.1105-1.2484H32.98l-.0333-7.3949a1.559,1.559,0,0,0-1.5558-1.5487Z" style="fill:#fff"/><path d="M14.901,9.12l0,.01c-.0174,1.0847-2.8156,1.9623-6.2648,1.9623S2.3887,10.2147,2.3712,9.13l0-.01c0-1.0894,2.8048-1.9725,6.2649-1.9725S14.901,8.03,14.901,9.12Z" style="fill:#e12229"/><path d="M14.9214,19.7408l0,.01c-.0174,1.0847-2.8156,1.9622-6.2648,1.9622s-6.2473-.8775-6.2648-1.9622l0-.01-.0041-2.779,0,.01c.0175,1.0847,2.8157,1.9622,6.2648,1.9622s6.2474-.8775,6.2648-1.9622l0-.01Z" style="fill:#e12229"/><path d="M14.9072,16.2168l0,.01c-.0175,1.0846-2.8157,1.9622-6.2648,1.9622s-6.2474-.8776-6.2648-1.9622l0-.01-.0041-2.779,0,.01C2.3908,14.5328,5.189,15.41,8.6382,15.41s6.2474-.8776,6.2648-1.9622l0-.01Z" style="fill:#e12229"/><path d="M14.9083,12.66l0,.01c-.0175,1.0847-2.8157,1.9622-6.2648,1.9622S2.396,13.7551,2.3786,12.67l0-.01-.0041-2.779,0,.01c.0174,1.0847,2.8156,1.9622,6.2648,1.9622s6.2473-.8775,6.2648-1.9622l0-.01Z" style="fill:#e12229"/></svg>