<svg xmlns="http://www.w3.org/2000/svg" viewBox="0 0 34.4736 35.5346"><path d="M17.5108,8.3758V.9771H7.3A3.2083,3.2083,0,0,0,4.1015,4.1759V27.6783A3.2082,3.2082,0,0,0,7.3,30.8771H24.8618a3.2081,3.2081,0,0,0,3.1988-3.1988V11.5746H20.71A3.2081,3.2081,0,0,1,17.5108,8.3758Z" style="fill:#fff;stroke:#000;stroke-linejoin:round;stroke-width:1.95428428707763px"/><line x1="17.5108" y1="0.9771" x2="28.0844" y2="11.5508" style="fill:#fff;stroke:#000;stroke-linejoin:round;stroke-width:1.95428428707763px"/><rect x="3.0246" y="6.2946" width="2.1612" height="16.2901" style="fill:#fff"/><path d="M17.9579,26.3927h3.6729V18.63a1.1822,1.1822,0,0,1,1.1811-1.1806h6.2075A1.1833,1.1833,0,0,1,30.2,18.6251l.0352,7.7676h3.4028l-7.6362,8.586Z" style="fill:#e12229"/><path d="M29.02,17.8244a.8057.8057,0,0,1,.8057.802l.0367,8.1414h2.9409l-6.8084,7.6545-7.171-7.6545H22.006V18.63a.8057.8057,0,0,1,.8057-.8056H29.02m0-.75H22.8117A1.5574,1.5574,0,0,0,21.256,18.63v7.3878H17.0931l1.183,1.2629,7.1709,7.6544.5617.5995.5461-.6139,6.8084-7.6544,1.11-1.2485H30.6085l-.0333-7.3949A1.5589,1.5589,0,0,0,29.02,17.0744Z" style="fill:#fff"/><path d="M12.53,9.12l0,.01c-.0175,1.0847-2.8157,1.9623-6.2648,1.9623S.0176,10.2147,0,9.13l0-.01C0,8.03,2.8049,7.1472,6.265,7.1472S12.53,8.03,12.53,9.12Z" style="fill:#e12229"/><path d="M12.55,19.7408l0,.01c-.0175,1.0847-2.8157,1.9622-6.2648,1.9622S.038,20.8358.0206,19.7511l0-.01-.0041-2.779,0,.01c.0174,1.0847,2.8156,1.9622,6.2648,1.9622s6.2473-.8775,6.2648-1.9622l0-.01Z" style="fill:#e12229"/><path d="M12.5362,16.2168l0,.01c-.0174,1.0846-2.8156,1.9622-6.2648,1.9622S.0239,17.3117.0064,16.2271l0-.01-.004-2.779,0,.01C.02,14.5328,2.818,15.41,6.2671,15.41s6.2474-.8776,6.2649-1.9622l0-.01Z" style="fill:#e12229"/><path d="M12.5373,12.66l0,.01c-.0174,1.0847-2.8156,1.9622-6.2648,1.9622S.025,13.7551.0075,12.67l0-.01L.0033,9.8811l0,.01c.0175,1.0847,2.8157,1.9622,6.2648,1.9622s6.2474-.8775,6.2648-1.9622l0-.01Z" style="fill:#e12229"/></svg>