<svg xmlns="http://www.w3.org/2000/svg" viewBox="0 0 98.0859 23.1622"><title>00-Fidle-Anaconda</title><g id="Calque_2" data-name="Calque 2"><g id="Contains_1" data-name="Contains #1"><rect x="0.6697" y="0.6697" width="96.7465" height="19.2734" rx="2.2368" style="fill:none;stroke:#2cb34a;stroke-miterlimit:10;stroke-width:1.3393646861416477px"/><g id="Calque_4" data-name="Calque 4"><path d="M25.2956,5.966A.1966.1966,0,0,0,25.1,5.833h-.1148a.2067.2067,0,0,0-.1955.133l-3.5742,8.14a.2127.2127,0,0,0,.1954.3145h1a.3481.3481,0,0,0,.333-.2418l.5636-1.3063h3.4359l.5635,1.3063c.0808.1691.161.2418.3339.2418h1a.2125.2125,0,0,0,.195-.3145ZM23.87,11.53l1.1271-2.6611h.0341L26.1811,11.53Z" style="fill:#2cb34a"/><path d="M36.2518,5.9542H35.1944a.2243.2243,0,0,0-.2185.2295v4.9957h-.0114L30.1836,5.8328h-.2869a.2214.2214,0,0,0-.2186.2179v8.14a.2316.2316,0,0,0,.2186.2293h1.0452a.224.224,0,0,0,.2181-.2293V8.99h.0114l4.8048,5.5516h.2758a.2214.2214,0,0,0,.2181-.2179v-8.14a.232.232,0,0,0-.2181-.2295" style="fill:#2cb34a"/><path d="M41.415,5.966a.1953.1953,0,0,0-.195-.133h-.1155a.2066.2066,0,0,0-.195.133l-3.574,8.14a.2127.2127,0,0,0,.1953.3145h1a.3482.3482,0,0,0,.3329-.2418l.5636-1.3063h3.4359l.5635,1.3063c.0806.1691.161.2418.3334.2418h1a.2128.2128,0,0,0,.1955-.3145ZM39.99,11.53l1.1271-2.6611h.0342L42.301,11.53Z" style="fill:#2cb34a"/><path d="M51.2375,12.2676a.2036.2036,0,0,0-.2872,0,2.5841,2.5841,0,0,1-4.3329-2.1039A2.6832,2.6832,0,0,1,49.16,7.3469l.02-.0009a2.6435,2.6435,0,0,1,1.77.7138.1784.1784,0,0,0,.25.0376.1811.1811,0,0,0,.0376-.0376l.7013-.7619a.2332.2332,0,0,0-.0024-.33L51.9273,6.96A3.7849,3.7849,0,0,0,49.146,5.8349a4.2523,4.2523,0,0,0-4.1491,4.353l0,.0133a4.2309,4.2309,0,0,0,4.1177,4.3412l.0311.0007A3.8412,3.8412,0,0,0,51.9388,13.37a.2388.2388,0,0,0,.011-.3265Z" style="fill:#2cb34a"/><path d="M56.6682,5.833a4.2335,4.2335,0,0,0-4.1265,4.3379l.0008.0285a4.1366,4.1366,0,1,0,8.2629,0,4.2429,4.2429,0,0,0-4.1161-4.3658l-.0211-.0006m0,7.1362a2.71,2.71,0,0,1-2.6319-2.77,2.6421,2.6421,0,1,1,5.2753,0,2.72,2.72,0,0,1-2.6434,2.77" style="fill:#2cb34a"/><path d="M68.6365,5.9542H67.5791a.224.224,0,0,0-.218.2295v4.9957h-.0119L62.5683,5.8328h-.2868a.2215.2215,0,0,0-.2187.2179v8.14a.2317.2317,0,0,0,.2187.2293h1.0453a.224.224,0,0,0,.2185-.2293V8.99h.0111l4.8048,5.5516h.2757a.2216.2216,0,0,0,.2185-.2179v-8.14a.2324.2324,0,0,0-.2185-.2295" style="fill:#2cb34a"/><path d="M73.2469,5.954H70.5231a.2225.2225,0,0,0-.2066.23v8.0065a.2227.2227,0,0,0,.2066.23h2.7238a4.1489,4.1489,0,0,0,4.034-4.2454,4.1427,4.1427,0,0,0-4.034-4.2213m-.1379,6.9913h-1.31V7.4175h1.31a2.6051,2.6051,0,0,1,2.5906,2.62q0,.0693-.0045.1383A2.6085,2.6085,0,0,1,73.2523,12.94q-.0716.0045-.1433.0049" style="fill:#2cb34a"/><path d="M84.9648,14.1062l-3.54-8.14a.1954.1954,0,0,0-.195-.133h-.1154a.2067.2067,0,0,0-.195.133l-3.5741,8.14a.2127.2127,0,0,0,.1953.3145h1a.3482.3482,0,0,0,.3329-.2418l.5635-1.3063h3.436l.5635,1.3063c.0806.1691.161.2418.3334.2418h1a.2129.2129,0,0,0,.1956-.3145M80.0006,11.53l1.1259-2.6611h.0346L82.3105,11.53Z" style="fill:#2cb34a"/><path d="M6.362,14.2845l.0013-.0547a11.1264,11.1264,0,0,1,.0983-1.283l.0054-.0391-.0353-.0133a9.7437,9.7437,0,0,1-1.0987-.5583l-.0449-.027-.0225.0475a10.3564,10.3564,0,0,0-.5824,1.5484l-.015.05.0483.0139A9.159,9.159,0,0,0,6.31,14.28Z" style="fill:#2cb34a"/><path d="M7.4609,6.7056l.0023-.013a8.9453,8.9453,0,0,0-.9237.0656q.0594.49.1642.9721a5.0894,5.0894,0,0,1,.7572-1.0247" style="fill:#2cb34a"/><path d="M6.362,14.6737v-.0453l-.0432-.0045a9.41,9.41,0,0,1-1.3628-.24l-.1191-.03.0674.1074a7.4327,7.4327,0,0,0,1.484,1.7151l.0939.0794-.0169-.1253a14.09,14.09,0,0,1-.1033-1.4573" style="fill:#2cb34a"/><path d="M8.5707,3.2473a6.933,6.933,0,0,0-1.5591.7974A9.5535,9.5535,0,0,1,8.09,4.3111a10.8416,10.8416,0,0,1,.4809-1.0638" style="fill:#2cb34a"/><path d="M10.87,2.8446a6.8181,6.8181,0,0,0-.8092.05,10.2828,10.2828,0,0,1,1.0773.9083l.2827.2742-.2779.28a9.7318,9.7318,0,0,0-.6662.7514l-.01.0122c-.0024.0026-.0423.0494-.1084.1343a4.604,4.604,0,0,1,.5117-.0287,4.9692,4.9692,0,0,1,4.8376,5.0912A4.9692,4.9692,0,0,1,10.87,15.4082a4.64,4.64,0,0,1-2.5288-.7514,9.4711,9.4711,0,0,1-1.0936.0646q-.2549,0-.51-.0139a13.87,13.87,0,0,0,.1576,1.8018,6.8191,6.8191,0,0,0,3.9745,1.28A7.2942,7.2942,0,0,0,17.97,10.316,7.2939,7.2939,0,0,0,10.87,2.8446" style="fill:#2cb34a"/><path d="M9.9285,4.61c.1413-.1764.2876-.3471.4366-.5111a9.4369,9.4369,0,0,0-1.052-.8153,10.0084,10.0084,0,0,0-.59,1.2456,9.8146,9.8146,0,0,1,.9373.4214c.1413-.1909.24-.3071.2681-.34" style="fill:#2cb34a"/><path d="M5.1087,8.8745l.0274.0462.0423-.0318a9.8369,9.8369,0,0,1,1.0281-.6811L6.24,8.189,6.2305,8.15a10.8127,10.8127,0,0,1-.24-1.3048l-.0063-.0531-.05.01a9.0877,9.0877,0,0,0-1.5439.44l-.0473.018.0187.0487a10.2861,10.2861,0,0,0,.7473,1.5659" style="fill:#2cb34a"/><path d="M5.0274,9.5992l-.0406.0342a9.7542,9.7542,0,0,0-1.0762,1.0808l-.0327.0376.0367.0342a9.609,9.609,0,0,0,1.1806.9267l.0426.0287.0252-.0468a10.59,10.59,0,0,1,.6261-1.0232l.0227-.033-.0261-.0307a10.4605,10.4605,0,0,1-.7292-.9631Z" style="fill:#2cb34a"/><path d="M7.8118,14.3106l.1234-.0073L7.84,14.2206a4.9675,4.9675,0,0,1-.9768-1.1429l-.003-.0142-.0789-.0363-.009.07a10.9551,10.9551,0,0,0-.0832,1.1646v.049l.046.0032q.2531.0141.5085.0139.2843,0,.5684-.0174" style="fill:#2cb34a"/><path d="M7.5751,6.0568a11.03,11.03,0,0,1,.2843-1.09,8.94,8.94,0,0,0-1.3625-.3005,10.3927,10.3927,0,0,0-.0148,1.4594,9.5772,9.5772,0,0,1,1.093-.0693" style="fill:#2cb34a"/><path d="M8.26,6.0314a4.7143,4.7143,0,0,1,.9941-.5134q-.3744-.1854-.764-.3361-.1332.42-.23.8495" style="fill:#2cb34a"/><path d="M4.9567,12.1009l-.0375-.0246a9.9908,9.9908,0,0,1-1.0548-.8023l-.095-.0826.0161.1285a7.8048,7.8048,0,0,0,.56,2.0744l.05.1168.0408-.1213a10.7684,10.7684,0,0,1,.5-1.2468Z" style="fill:#2cb34a"/><path d="M5.87,5.0119a7.481,7.481,0,0,0-1.102,1.484A9.67,9.67,0,0,1,5.883,6.2181,11.1319,11.1319,0,0,1,5.87,5.0119" style="fill:#2cb34a"/><path d="M6.08,10.25l.0046-.1291a5.2787,5.2787,0,0,1,.22-1.3318l.0376-.1253-.108.0655a9.7284,9.7284,0,0,0-.814.5544l-.0375.03.0268.0407c.1832.2745.3821.5431.5912.7984Z" style="fill:#2cb34a"/><path d="M6.1272,11.0214,6.11,10.8951l-.07.1039a10.1788,10.1788,0,0,0-.5472.9064L5.47,11.95l.0425.0245a9.24,9.24,0,0,0,.9285.4814l.1127.0513-.05-.118a5.24,5.24,0,0,1-.3757-1.3673" style="fill:#2cb34a"/><path d="M4.7458,9.2342,4.78,9.2058l-.0225-.0375a10.6568,10.6568,0,0,1-.6012-1.17l-.0511-.12-.0375.124a7.86,7.86,0,0,0-.3406,2.0982l-.0039.1321.0862-.094a10.266,10.266,0,0,1,.9368-.9041" style="fill:#2cb34a"/></g><path d="M83.4285,16.2586h2.7734V10.3963a.8925.8925,0,0,1,.8916-.8916h4.688a.8936.8936,0,0,1,.8916.8877L92.7,16.2586h2.57L89.5022,22.742Z" style="fill:#e12229"/><path d="M91.7814,9.7881a.6085.6085,0,0,1,.6084.6057l.0277,6.148h2.2208l-5.1413,5.78-5.4153-5.78h2.4034V10.3965a.6083.6083,0,0,1,.6084-.6084h4.6879m0-.5664H87.0935a1.1762,1.1762,0,0,0-1.1748,1.1748v5.5789H82.775l.8933.9536,5.4153,5.78.4242.4529.4124-.4637,5.1413-5.78.8385-.9429H92.9813l-.0251-5.584a1.1773,1.1773,0,0,0-1.1748-1.17Z" style="fill:#fff"/></g></g></svg>