<svg xmlns="http://www.w3.org/2000/svg" viewBox="0 0 64.4826 14.1627"><title>00-fidle-CC BY-NC-SA</title><g id="Calque_2" data-name="Calque 2"><g id="Calque_4" data-name="Calque 4"><circle cx="57.2782" cy="7.1103" r="6.4407" style="fill:#fff"/><path d="M57.3886,0a6.8472,6.8472,0,0,1,5.0326,2.0613,6.8068,6.8068,0,0,1,2.0614,5.02,6.7435,6.7435,0,0,1-2.0237,4.9822,6.99,6.99,0,0,1-5.07,2.0992,6.8539,6.8539,0,0,1-4.9822-2.0866A6.814,6.814,0,0,1,50.32,7.0816a6.9263,6.9263,0,0,1,2.0865-5.02A6.7862,6.7862,0,0,1,57.3886,0Zm.0252,1.2773a5.4932,5.4932,0,0,0-4.0844,1.7073,5.6556,5.6556,0,0,0-1.7325,4.0967,5.5385,5.5385,0,0,0,1.72,4.0718,5.5929,5.5929,0,0,0,4.097,1.72,5.6848,5.6848,0,0,0,4.1224-1.7323A5.4188,5.4188,0,0,0,63.205,7.0813a5.5284,5.5284,0,0,0-1.6942-4.0967A5.5324,5.5324,0,0,0,57.4138,1.2773ZM54.2525,6.0822a3.1608,3.1608,0,0,1,1.0493-2.0168,3.09,3.09,0,0,1,2.0611-.7144,3.43,3.43,0,0,1,2.6555,1.0746,3.9187,3.9187,0,0,1,.9863,2.7567,3.7884,3.7884,0,0,1-1.0239,2.7121,3.4948,3.4948,0,0,1-2.6559,1.0812,3.1526,3.1526,0,0,1-2.0738-.7207,3.0631,3.0631,0,0,1-1.05-2.0485H55.985q.063,1.29,1.5554,1.29a1.4055,1.4055,0,0,0,1.2012-.6448,2.9238,2.9238,0,0,0,.4556-1.72A2.9487,2.9487,0,0,0,58.78,5.4183a1.595,1.595,0,0,0-2.7949.6637h.5185L55.1,7.4856,53.6966,6.082l.5559,0Z"/><path d="M13.7261,7.0777a6.17,6.17,0,0,1-.8732,3.15A6.2522,6.2522,0,0,1,10.506,12.55a6.6228,6.6228,0,0,1-3.2473.8542,6.53,6.53,0,0,1-5.6214-3.1767,6.14,6.14,0,0,1-.8459-3.15A6.1656,6.1656,0,0,1,1.6373,3.901,6.53,6.53,0,0,1,7.2587.7243a6.6228,6.6228,0,0,1,3.2473.8542A6.2522,6.2522,0,0,1,12.8529,3.901a6.1925,6.1925,0,0,1,.8732,3.1767Z" style="fill:#fff;fill-rule:evenodd"/><path d="M7.1769.0472a7.125,7.125,0,0,1,5.13,2.0555,6.7828,6.7828,0,0,1,1.5554,2.2691,7.558,7.558,0,0,1,.5185,2.7229,6.8858,6.8858,0,0,1-.5185,2.6962,6.9023,6.9023,0,0,1-1.5281,2.2157,7.3433,7.3433,0,0,1-5.1575,2.1089,7.2989,7.2989,0,0,1-2.7289-.5339,7.4348,7.4348,0,0,1-2.3468-1.5483A7.06,7.06,0,0,1,.5458,9.7642,6.8733,6.8733,0,0,1,0,7.0947a6.9053,6.9053,0,0,1,2.1285-4.992A6.893,6.893,0,0,1,7.1769.0472Zm.0272,1.2813A5.6428,5.6428,0,0,0,3.0563,3.01a5.8377,5.8377,0,0,0-1.31,1.8687A5.6335,5.6335,0,0,0,1.31,7.0947,5.3784,5.3784,0,0,0,1.7465,9.257a5.5607,5.5607,0,0,0,1.31,1.8687,5.8964,5.8964,0,0,0,1.91,1.2546,5.75,5.75,0,0,0,2.2376.4272A5.847,5.847,0,0,0,9.4418,12.38a6.6164,6.6164,0,0,0,1.9648-1.2546,5.3941,5.3941,0,0,0,1.6646-4.031,5.4515,5.4515,0,0,0-.4367-2.2157A5.6677,5.6677,0,0,0,11.3793,3.01,5.7935,5.7935,0,0,0,7.2041,1.3285ZM7.1223,5.92,6.14,6.4006a.8251.8251,0,0,0-.3548-.4271A1.0185,1.0185,0,0,0,5.3485,5.84c-.6276,0-.9551.4-.9551,1.2547a1.4158,1.4158,0,0,0,.2456.8809.8057.8057,0,0,0,.7095.3471.9087.9087,0,0,0,.9006-.5873l.8732.4271a1.8879,1.8879,0,0,1-.7914.8009,1.9146,1.9146,0,0,1-1.0915.2936,2.1289,2.1289,0,0,1-1.5555-.5606,2.24,2.24,0,0,1-.6-1.6017,2.1955,2.1955,0,0,1,.6-1.6017,2.06,2.06,0,0,1,1.5282-.5873A2.0048,2.0048,0,0,1,7.1223,5.92Zm4.1478,0-.9551.4805A.958.958,0,0,0,9.4964,5.84c-.6277,0-.9551.4-.9551,1.2547a1.4151,1.4151,0,0,0,.2456.8809.8055.8055,0,0,0,.71.3471.9323.9323,0,0,0,.9005-.5873l.9.4271a2.1227,2.1227,0,0,1-.8186.8009,1.9151,1.9151,0,0,1-1.0916.2936,2.2183,2.2183,0,0,1-1.5554-.5606,2.2235,2.2235,0,0,1-.5731-1.6017,2.09,2.09,0,0,1,.6-1.6017A1.9972,1.9972,0,0,1,9.36,4.9057,1.9784,1.9784,0,0,1,11.27,5.92Z" style="fill-rule:evenodd"/><path d="M30.3129,7.1845a5.8853,5.8853,0,0,1-.8459,3.0967,6.3089,6.3089,0,0,1-2.32,2.2958,6.6833,6.6833,0,0,1-3.1927.8275,6.5,6.5,0,0,1-3.1655-.8275,6.3842,6.3842,0,0,1-2.3468-2.2958,6.091,6.091,0,0,1,0-6.1933,6.3834,6.3834,0,0,1,2.3468-2.2958A6.5,6.5,0,0,1,23.9547.9645a6.6834,6.6834,0,0,1,3.1927.8276,6.3081,6.3081,0,0,1,2.32,2.2958,5.8847,5.8847,0,0,1,.8459,3.0966Z" style="fill:#fff;fill-rule:evenodd"/><path d="M23.9274.0472A7.1026,7.1026,0,0,1,29.03,2.076a6.7731,6.7731,0,0,1,2.1013,5.0187,6.4351,6.4351,0,0,1-2.074,4.9119,7.0927,7.0927,0,0,1-5.13,2.1089,7.0061,7.0061,0,0,1-5.0756-2.0822,6.6069,6.6069,0,0,1-2.1285-4.9386A6.8228,6.8228,0,0,1,18.8518,2.076,7.0846,7.0846,0,0,1,23.9274.0472Zm0,1.2813A5.6865,5.6865,0,0,0,19.78,3.01a5.5937,5.5937,0,0,0-1.7465,4.0844,5.4357,5.4357,0,0,0,1.7465,4.031,5.6938,5.6938,0,0,0,4.1478,1.7085A5.8885,5.8885,0,0,0,28.13,11.099a5.2006,5.2006,0,0,0,1.6919-4.031A5.4837,5.4837,0,0,0,28.1025,3.01a5.7488,5.7488,0,0,0-4.1751-1.6818Zm1.9375,4.0043V8.2159h-.8187v3.417H22.8086V8.2159H21.99V5.3328a.4372.4372,0,0,1,.1365-.32.4566.4566,0,0,1,.3274-.1335H25.401a.4566.4566,0,0,1,.3274.1335.4372.4372,0,0,1,.1365.32ZM22.9177,3.5175a.8864.8864,0,0,1,1.01-.9877.8864.8864,0,0,1,1.01.9877.8866.8866,0,0,1-1.01.9878.8866.8866,0,0,1-1.01-.9878Z" style="fill-rule:evenodd"/><path d="M47.05,7.051a6.3376,6.3376,0,0,1-.8732,3.1768A6.4017,6.4017,0,0,1,43.7752,12.55a6.5549,6.5549,0,0,1-8.8687-2.3225,6.3367,6.3367,0,0,1-.8733-3.1768,6.1916,6.1916,0,0,1,.8733-3.1767,6.574,6.574,0,0,1,8.8687-2.3225,6.4017,6.4017,0,0,1,2.4014,2.3225A6.1925,6.1925,0,0,1,47.05,7.051Z" style="fill:#fff;fill-rule:evenodd"/><path d="M45.7673,2.076a7.3977,7.3977,0,0,0-10.1786,0A6.8228,6.8228,0,0,0,33.46,7.0947a6.691,6.691,0,0,0,2.1285,4.9386,7.0061,7.0061,0,0,0,5.0756,2.0822,7.2846,7.2846,0,0,0,5.1575-2.0822,6.65,6.65,0,0,0,2.0467-4.9386A6.7733,6.7733,0,0,0,45.7673,2.076Zm-.9006,9.023a5.8427,5.8427,0,0,1-4.2024,1.7352,5.7557,5.7557,0,0,1-4.1478-1.7085A5.451,5.451,0,0,1,34.77,7.068a6.0961,6.0961,0,0,1,.3-1.8687l1.91.8276h-.1365v.8542h.6822c0,.1068-.0272.2136-.0272.3471V7.415h-.655v.8543h.7914a3.281,3.281,0,0,0,.6822,1.5216,3.5678,3.5678,0,0,0,2.92,1.3348,4.2327,4.2327,0,0,0,1.8829-.4272l-.2729-1.308a4.0008,4.0008,0,0,1-1.3917.2936A2.1665,2.1665,0,0,1,39.9,9.0968a2.14,2.14,0,0,1-.382-.8275h2.62L45.8491,9.871a4.666,4.666,0,0,1-.9824,1.228ZM40.2,7.415h0Zm2.2377-.5339h.1091V6.0269H40.5006L39.6819,5.68a1.0028,1.0028,0,0,1,.2456-.4,1.84,1.84,0,0,1,1.4736-.6407,4.0246,4.0246,0,0,1,1.3371.267l.3548-1.3348a4.8132,4.8132,0,0,0-1.8283-.347,3.7242,3.7242,0,0,0-2.7835,1.2013c-.1364.16-.2728.3737-.4093.5606L35.7251,3.9714a5.3353,5.3353,0,0,1,.7914-.9611,5.7105,5.7105,0,0,1,4.1478-1.7085A5.7727,5.7727,0,0,1,44.8394,3.01a5.4172,5.4172,0,0,1,1.7192,4.0844A6.79,6.79,0,0,1,46.3949,8.59L42.4381,6.8811Z" style="fill-rule:evenodd"/></g></g></svg>