<svg xmlns="http://www.w3.org/2000/svg" viewBox="0 0 319.4819 36.2319"><title>00-header-01</title><g id="Calque_2" data-name="Calque 2"><g id="Calque_4" data-name="Calque 4"><path d="M19.6212,13.4825a5.49,5.49,0,0,0,2.2409-.7517,2.75,2.75,0,0,1,1.0037-.3925A6.2169,6.2169,0,0,0,20.4184,5.353a7.2454,7.2454,0,0,0-5.0435-.8518,10.436,10.436,0,0,0-4.3281,2.2353c-.4328.3626-5.581,5.2428-7.7283,4.27C1.8658,10.3486,4.46,7.9537,3.27,5.7652a.0949.0949,0,0,0-.1584-.0105c-.6056.817-1.1976,1.7975-2.0041,1.3573A3.7988,3.7988,0,0,1,.1729,5.89.0941.0941,0,0,0,0,5.9434a9.9185,9.9185,0,0,0,2.4932,6.0532,15.0278,15.0278,0,0,0,10.339,5.3173c2.27.2261,7.6543-.49,9.8054-4.36a5.4574,5.4574,0,0,0-.5189.2577,6.04,6.04,0,0,1-2.448.8142c-.0748.0069-.1491.01-.2234.01a4.3218,4.3218,0,0,1-2.44-.9782.4573.4573,0,1,1,.3495-.4436l-.0023.0218A3.5637,3.5637,0,0,0,19.6212,13.4825ZM12.76,15.5084a8.3323,8.3323,0,0,1-1.9609.3562c-.4428,0-.627-.1255-.7147-.314-.2306-.4961.6005-1.2133,1.3378-1.7279a.2726.2726,0,0,1,.312.4472,4.4932,4.4932,0,0,0-1.1262,1.0351,5.352,5.352,0,0,0,2.0105-.3235.2728.2728,0,0,1,.1415.5269ZM19.0763,8.863a1.0412,1.0412,0,0,1,1.0109,1.0032.68.68,0,1,0-.6023.9942.7023.7023,0,0,0,.1263-.0126.9691.9691,0,0,1-.5349.1646,1.0763,1.0763,0,0,1,0-2.1494ZM15.5649,1.8843a.5453.5453,0,0,0,.2143.7407c.2638.1453.82-.1708,1.1567.3.1751.2449-.3665-1.11-.63-1.2554A.5449.5449,0,0,0,15.5649,1.8843Zm2.7777.0584c-.68.3984-.8055,2.0455-.63,1.8007a3.1,3.1,0,0,1,1.1567-.8456.5453.5453,0,0,0-.5264-.9551ZM17.6534.1266c-.3475.402-.11,1.4443-.0473,1.2532a2.216,2.216,0,0,1,.5595-.7875.3573.3573,0,0,0-.0087-.505A.3538.3538,0,0,0,17.6534.1266Z" style="fill:#e12229"/><path d="M1.2153,20.5943H4.63v.41H1.6972v2.7481H4.3837v.41H1.6972v3.3428H1.2153Z" style="fill:#808285"/><path d="M6.4355,20.5943v6.9111H5.9536V20.5943Z" style="fill:#808285"/><path d="M8.1171,20.6865a11.3714,11.3714,0,0,1,1.7637-.1435,3.7468,3.7468,0,0,1,2.7891.9433,3.269,3.269,0,0,1,.8613,2.3892,3.8066,3.8066,0,0,1-.9024,2.625A3.97,3.97,0,0,1,9.645,27.5567a14.7357,14.7357,0,0,1-1.5279-.0616Zm.482,6.4087a8.7069,8.7069,0,0,0,1.1176.0513,2.96,2.96,0,0,0,3.312-3.24c.01-1.7535-.9638-2.9532-3.1787-2.9532a7.3291,7.3291,0,0,0-1.2509.1026Z" style="fill:#808285"/><path d="M14.7524,20.5943h.4819v6.5009h3.0864v.41H14.7524Z" style="fill:#808285"/><path d="M22.5976,24.07H19.829v3.0249h3.0967v.41H19.3471V20.5943h3.4146v.41H19.829V23.66h2.7686Z" style="fill:#808285"/><path d="M39.1845,4.6616h5.874v1.26H40.6752V9.9678h4.064V11.21h-4.064v5.4126H39.1845Z"/><path d="M53.5209,12.2749c0,3.2119-2.0053,4.5249-3.8506,4.5249-2.0942,0-3.727-1.6147-3.727-4.4184,0-2.9458,1.7568-4.5254,3.8511-4.5254C51.977,7.856,53.5209,9.542,53.5209,12.2749Zm-6.0512.0708c0,1.7393.8339,3.3184,2.2714,3.3184,1.4019,0,2.254-1.5972,2.254-3.354,0-1.42-.586-3.3-2.254-3.3C48.1083,9.01,47.47,10.8018,47.47,12.3457Z"/><path d="M55.3456,10.5713c0-.9229-.0356-1.7749-.0708-2.5376h1.3306l.0532,1.5791h.0537A2.4529,2.4529,0,0,1,58.93,7.856a2.6759,2.6759,0,0,1,.3906.0356V9.3467a1.864,1.864,0,0,0-.4614-.0357,2.0646,2.0646,0,0,0-1.9521,1.9346,3.2178,3.2178,0,0,0-.0708.7451v4.6319H55.3456Z"/><path d="M60.7211,10.3228c0-.9229-.0356-1.58-.0708-2.2891h1.313l.0889,1.2954h.0351A2.6985,2.6985,0,0,1,64.5541,7.856a2.3122,2.3122,0,0,1,2.2364,1.5971h.0351a3.1057,3.1057,0,0,1,.9405-1.0649,2.577,2.577,0,0,1,1.6684-.5322c1.1533,0,2.6084.7807,2.6084,3.5136v5.253H70.57V11.6182c0-1.5083-.4791-2.52-1.6685-2.52a1.8267,1.8267,0,0,0-1.668,1.3667,2.683,2.683,0,0,0-.1064.7807v5.377H65.6547V11.3345c0-1.2422-.48-2.2363-1.6152-2.2363a1.917,1.917,0,0,0-1.7388,1.5083,2.6343,2.6343,0,0,0-.1064.7631v5.253H60.7211Z"/><path d="M78.747,16.6226l-.1245-1.0293h-.0532a2.7825,2.7825,0,0,1-2.36,1.2065A2.36,2.36,0,0,1,73.76,14.3335c0-2.0942,1.81-3.1767,4.72-3.1592v-.2129c0-.8339-.2305-1.9873-1.792-1.97a3.6276,3.6276,0,0,0-1.9878.5859l-.3369-1.0292a5.0217,5.0217,0,0,1,2.5908-.6924c2.36,0,3.0166,1.5971,3.0166,3.39V14.6a14.2132,14.2132,0,0,0,.1245,2.023Zm-.2485-4.4009c-1.3843-.0181-3.23.23-3.23,1.9521a1.314,1.314,0,0,0,1.331,1.49A1.8735,1.8735,0,0,0,78.4453,14.28a1.5848,1.5848,0,0,0,.0532-.4971Z"/><path d="M84.0322,5.62V8.0337h2.0586V9.187H84.0322v4.7559c0,1.0825.32,1.5972,1.0825,1.5972a3.0043,3.0043,0,0,0,.7988-.0889l.0708,1.1357a3.3086,3.3086,0,0,1-1.2778.1953,2.044,2.044,0,0,1-1.5791-.6211,3.1748,3.1748,0,0,1-.5855-2.2006V9.187H81.2993V8.0337h1.2426V6.0283Z"/><path d="M89.3369,5.6734a.894.894,0,0,1-.9405.94.8716.8716,0,0,1-.8872-.94.9142.9142,0,1,1,1.8277,0Zm-1.668,10.9492V8.0337h1.5083v8.5889Z"/><path d="M98.581,12.2749c0,3.2119-2.0054,4.5249-3.8506,4.5249-2.0942,0-3.727-1.6147-3.727-4.4184,0-2.9458,1.7568-4.5254,3.851-4.5254C97.037,7.856,98.581,9.542,98.581,12.2749Zm-6.0513.0708c0,1.7393.834,3.3184,2.2715,3.3184,1.4019,0,2.2539-1.5972,2.2539-3.354,0-1.42-.5859-3.3-2.2539-3.3C93.1684,9.01,92.53,10.8018,92.53,12.3457Z"/><path d="M100.4062,10.3228c0-.9229-.0357-1.58-.0708-2.2891h1.3306l.0712,1.2954h.0533a2.8836,2.8836,0,0,1,2.5732-1.4731c1.189,0,2.7329.7632,2.7329,3.46v5.3062h-1.4907V11.4942c0-1.2779-.4258-2.396-1.7393-2.396a1.9932,1.9932,0,0,0-1.8632,1.5439,2.9542,2.9542,0,0,0-.0889.7456v5.2349h-1.5083Z"/><path d="M114.4921,4.6616v11.961h-1.4907V4.6616Z"/><path d="M117.0815,10.3228c0-.9229-.0357-1.58-.0708-2.2891h1.3305l.0713,1.2954h.0533A2.8835,2.8835,0,0,1,121.039,7.856c1.189,0,2.7329.7632,2.7329,3.46v5.3062h-1.4907V11.4942c0-1.2779-.4263-2.396-1.7393-2.396a1.9934,1.9934,0,0,0-1.8633,1.5439,2.9592,2.9592,0,0,0-.0888.7456v5.2349h-1.5083Z"/><path d="M127.8857,5.62V8.0337h2.0586V9.187h-2.0586v4.7559c0,1.0825.32,1.5972,1.0825,1.5972a3.0043,3.0043,0,0,0,.7988-.0889l.0708,1.1357a3.3083,3.3083,0,0,1-1.2778.1953,2.044,2.044,0,0,1-1.5791-.6211,3.1748,3.1748,0,0,1-.5855-2.2006V9.187h-1.2426V8.0337h1.2426V6.0283Z"/><path d="M131.5224,10.5713c0-.9229-.0356-1.7749-.0708-2.5376h1.3306l.0532,1.5791h.0537a2.4529,2.4529,0,0,1,2.2178-1.7568,2.6759,2.6759,0,0,1,.3906.0356V9.3467a1.864,1.864,0,0,0-.4614-.0357,2.0648,2.0648,0,0,0-1.9522,1.9346,3.2233,3.2233,0,0,0-.0708.7451v4.6319h-1.4907Z"/><path d="M143.73,12.2749c0,3.2119-2.0054,4.5249-3.8506,4.5249-2.0942,0-3.727-1.6147-3.727-4.4184,0-2.9458,1.7568-4.5254,3.8511-4.5254C142.186,7.856,143.73,9.542,143.73,12.2749Zm-6.0513.0708c0,1.7393.834,3.3184,2.2715,3.3184,1.4019,0,2.2539-1.5972,2.2539-3.354,0-1.42-.5859-3.3-2.2539-3.3C138.3173,9.01,137.6786,10.8018,137.6786,12.3457Z"/><path d="M152.2988,4.1118V14.4575c0,.71.0351,1.5972.0708,2.1651h-1.3311l-.0708-1.3662h-.0532A2.7766,2.7766,0,0,1,148.3412,16.8c-1.8989,0-3.3364-1.7036-3.3364-4.3652,0-2.9282,1.6328-4.5786,3.4785-4.5786a2.4975,2.4975,0,0,1,2.2891,1.2246h.0356V4.1118Zm-1.4908,7.3467a4.0769,4.0769,0,0,0-.0532-.6387,2.0659,2.0659,0,0,0-1.97-1.7568c-1.4732,0-2.2539,1.4727-2.2539,3.3008,0,1.7744.7451,3.2119,2.2182,3.2119a2.0694,2.0694,0,0,0,1.9874-1.7393,2.4325,2.4325,0,0,0,.0712-.6386Z"/><path d="M161.24,14.28c0,.9048.0356,1.668.0713,2.3423h-1.3135l-.0889-1.26h-.0351a2.896,2.896,0,0,1-2.5376,1.437c-1.4024,0-2.6978-.8691-2.6978-3.62V8.0337h1.4907v4.8975c0,1.5439.4258,2.6264,1.6861,2.6264a1.9727,1.9727,0,0,0,1.81-1.3486,2.6964,2.6964,0,0,0,.1241-.7983V8.0337H161.24Z"/><path d="M169.1869,16.3384a5.0911,5.0911,0,0,1-2.165.4438c-2.36,0-3.94-1.686-3.94-4.3652a4.2057,4.2057,0,0,1,4.2592-4.543,4.4515,4.4515,0,0,1,1.8809.39l-.3369,1.1714a3.42,3.42,0,0,0-1.5615-.355c-1.7925,0-2.7154,1.5259-2.7154,3.2651,0,2.0054,1.1182,3.2119,2.6973,3.2119a3.8408,3.8408,0,0,0,1.6328-.355Z"/><path d="M172.8754,5.62V8.0337h2.0586V9.187h-2.0586v4.7559c0,1.0825.32,1.5972,1.0825,1.5972a3.0052,3.0052,0,0,0,.7989-.0889l.0708,1.1357a3.31,3.31,0,0,1-1.2774.1953,2.0446,2.0446,0,0,1-1.58-.6211,3.1748,3.1748,0,0,1-.5854-2.2006V9.187H170.143V8.0337h1.2422V6.0283Z"/><path d="M178.18,5.6734a.894.894,0,0,1-.94.94.8716.8716,0,0,1-.8872-.94.9142.9142,0,1,1,1.8276,0Zm-1.6679,10.9492V8.0337H178.02v8.5889Z"/><path d="M187.4238,12.2749c0,3.2119-2.0054,4.5249-3.8506,4.5249-2.0943,0-3.7271-1.6147-3.7271-4.4184,0-2.9458,1.7569-4.5254,3.8511-4.5254C185.88,7.856,187.4238,9.542,187.4238,12.2749Zm-6.0513.0708c0,1.7393.834,3.3184,2.2715,3.3184,1.4018,0,2.2539-1.5972,2.2539-3.354,0-1.42-.586-3.3-2.2539-3.3C182.0112,9.01,181.3725,10.8018,181.3725,12.3457Z"/><path d="M189.249,10.3228c0-.9229-.0357-1.58-.0708-2.2891h1.3305l.0713,1.2954h.0532a2.8837,2.8837,0,0,1,2.5733-1.4731c1.1889,0,2.7329.7632,2.7329,3.46v5.3062h-1.4907V11.4942c0-1.2779-.4258-2.396-1.7393-2.396a1.9934,1.9934,0,0,0-1.8633,1.5439,2.9592,2.9592,0,0,0-.0888.7456v5.2349H189.249Z"/><path d="M206.14,16.6226l-.1245-1.0293h-.0532a2.7825,2.7825,0,0,1-2.36,1.2065,2.36,2.36,0,0,1-2.4487-2.4663c0-2.0942,1.81-3.1767,4.72-3.1592v-.2129c0-.8339-.23-1.9873-1.792-1.97a3.6273,3.6273,0,0,0-1.9878.5859l-.3369-1.0292a5.0217,5.0217,0,0,1,2.5908-.6924c2.36,0,3.0166,1.5971,3.0166,3.39V14.6a14.2132,14.2132,0,0,0,.1245,2.023Zm-.2485-4.4009c-1.3843-.0181-3.23.23-3.23,1.9521a1.314,1.314,0,0,0,1.331,1.49,1.8733,1.8733,0,0,0,1.8457-1.3838,1.5819,1.5819,0,0,0,.0533-.4971Z"/><path d="M216.27,14.28c0,.9048.0356,1.668.0713,2.3423h-1.3135l-.0889-1.26h-.0351a2.896,2.896,0,0,1-2.5376,1.437c-1.4024,0-2.6978-.8691-2.6978-3.62V8.0337h1.4907v4.8975c0,1.5439.4258,2.6264,1.6861,2.6264a1.9728,1.9728,0,0,0,1.81-1.3486,2.6966,2.6966,0,0,0,.124-.7983V8.0337H216.27Z"/><path d="M222.21,4.8213a16.8353,16.8353,0,0,1,2.8574-.248,5.9357,5.9357,0,0,1,4.2236,1.3305,5.6509,5.6509,0,0,1,1.668,4.4546,6.55,6.55,0,0,1-1.6328,4.7734,6.464,6.464,0,0,1-4.6846,1.58,19.1885,19.1885,0,0,1-2.4316-.1245Zm1.4907,10.6123a8.7023,8.7023,0,0,0,1.2422.0708c2.7686,0,4.4546-1.6147,4.4546-5.0928.0176-2.8925-1.3843-4.6318-4.2417-4.6318a7.5156,7.5156,0,0,0-1.4551.124Z"/><path d="M233.76,12.5586c.0352,2.2715,1.2773,3.0523,2.6616,3.0523a5.0482,5.0482,0,0,0,2.0943-.4083l.2661,1.0826a6.2362,6.2362,0,0,1-2.5733.497c-2.4668,0-3.9043-1.7392-3.9043-4.33,0-2.6441,1.4375-4.5962,3.709-4.5962,2.4844,0,3.1944,2.2715,3.1944,3.9575a7.0326,7.0326,0,0,1-.0357.7451Zm4.01-1.0825c.018-1.2066-.479-2.52-1.899-2.52-1.3838,0-1.9873,1.4018-2.0937,2.52Z"/><path d="M241.92,12.5586c.0352,2.2715,1.2774,3.0523,2.6617,3.0523a5.0477,5.0477,0,0,0,2.0942-.4083l.2661,1.0826a6.2357,6.2357,0,0,1-2.5732.497c-2.4668,0-3.9043-1.7392-3.9043-4.33,0-2.6441,1.4375-4.5962,3.709-4.5962,2.4843,0,3.1943,2.2715,3.1943,3.9575a7.0657,7.0657,0,0,1-.0356.7451Zm4.01-1.0825c.0181-1.2066-.479-2.52-1.8989-2.52-1.3838,0-1.9873,1.4018-2.0938,2.52Z"/><path d="M249.1752,10.8018c0-1.1709-.0356-2.023-.0708-2.7681h1.3487l.0708,1.3486h.0356a2.9639,2.9639,0,0,1,2.68-1.5263c1.8989,0,3.3008,1.7036,3.3008,4.3833,0,3.1235-1.7217,4.5605-3.5318,4.5605a2.5779,2.5779,0,0,1-2.3066-1.2422h-.0356v4.543h-1.4908Zm1.4908,2.4311a2.5684,2.5684,0,0,0,.0708.6568,2.0816,2.0816,0,0,0,2.0053,1.7212c1.5083,0,2.2715-1.42,2.2715-3.3184,0-1.7393-.7451-3.2119-2.2358-3.2119a2.2068,2.2068,0,0,0-2.023,1.81,2.64,2.64,0,0,0-.0888.6387Z"/><path d="M261.9125,4.6616h1.4908V15.3628h4.5961v1.26h-6.0869Z"/><path d="M270.1806,12.5586c.0352,2.2715,1.2773,3.0523,2.6616,3.0523a5.0482,5.0482,0,0,0,2.0943-.4083l.2661,1.0826a6.2362,6.2362,0,0,1-2.5733.497c-2.4668,0-3.9043-1.7392-3.9043-4.33,0-2.6441,1.4375-4.5962,3.709-4.5962,2.4844,0,3.1944,2.2715,3.1944,3.9575a7.0326,7.0326,0,0,1-.0357.7451Zm4.01-1.0825c.018-1.2066-.479-2.52-1.899-2.52-1.3838,0-1.9873,1.4018-2.0937,2.52Z"/><path d="M281.8012,16.6226l-.1245-1.0293h-.0532a2.7825,2.7825,0,0,1-2.36,1.2065,2.36,2.36,0,0,1-2.4487-2.4663c0-2.0942,1.81-3.1767,4.72-3.1592v-.2129c0-.8339-.2305-1.9873-1.792-1.97a3.6276,3.6276,0,0,0-1.9878.5859l-.3369-1.0292a5.0217,5.0217,0,0,1,2.5908-.6924c2.36,0,3.0166,1.5971,3.0166,3.39V14.6a14.2132,14.2132,0,0,0,.1245,2.023Zm-.2485-4.4009c-1.3843-.0181-3.23.23-3.23,1.9521a1.314,1.314,0,0,0,1.331,1.49,1.8733,1.8733,0,0,0,1.8457-1.3838,1.5819,1.5819,0,0,0,.0533-.4971Z"/><path d="M285.3652,10.5713c0-.9229-.0357-1.7749-.0708-2.5376h1.3305l.0533,1.5791h.0537A2.4527,2.4527,0,0,1,288.95,7.856a2.6786,2.6786,0,0,1,.3907.0356V9.3467a1.8644,1.8644,0,0,0-.4615-.0357,2.0646,2.0646,0,0,0-1.9521,1.9346,3.2233,3.2233,0,0,0-.0708.7451v4.6319h-1.4907Z"/><path d="M290.7407,10.3228c0-.9229-.0357-1.58-.0708-2.2891H292l.0713,1.2954h.0532a2.8837,2.8837,0,0,1,2.5733-1.4731c1.1889,0,2.7329.7632,2.7329,3.46v5.3062H295.94V11.4942c0-1.2779-.4263-2.396-1.7393-2.396a1.9934,1.9934,0,0,0-1.8633,1.5439,2.9592,2.9592,0,0,0-.0888.7456v5.2349h-1.5083Z"/><path d="M301.456,5.6734a.894.894,0,0,1-.94.94.8716.8716,0,0,1-.8872-.94.9142.9142,0,1,1,1.8276,0Zm-1.668,10.9492V8.0337h1.5083v8.5889Z"/><path d="M303.6733,10.3228c0-.9229-.0357-1.58-.0708-2.2891h1.33l.0713,1.2954h.0533a2.8835,2.8835,0,0,1,2.5732-1.4731c1.189,0,2.7329.7632,2.7329,3.46v5.3062H308.873V11.4942c0-1.2779-.4263-2.396-1.7393-2.396a1.9934,1.9934,0,0,0-1.8633,1.5439,2.9592,2.9592,0,0,0-.0888.7456v5.2349h-1.5083Z"/><path d="M319.4819,8.0337c-.0357.603-.0708,1.3306-.0708,2.4487V15.416c0,2.0762-.3731,3.1587-1.1006,3.8687a4.0969,4.0969,0,0,1-2.8745.9936,4.9764,4.9764,0,0,1-2.5733-.6211l.355-1.1538a4.4965,4.4965,0,0,0,2.2534.586c1.4375,0,2.4668-.7808,2.4668-2.8926v-.9229h-.0356a2.65,2.65,0,0,1-2.4131,1.313c-1.9522,0-3.3189-1.7744-3.3189-4.2055,0-2.9815,1.7569-4.5254,3.5318-4.5254a2.5523,2.5523,0,0,1,2.36,1.3667h.0357l.0532-1.189ZM317.92,11.2813a2.8123,2.8123,0,0,0-.0712-.6748,2.0058,2.0058,0,0,0-1.9165-1.5435c-1.3311,0-2.2359,1.2773-2.2359,3.2471,0,1.8281.7984,3.1235,2.2183,3.1235a1.9791,1.9791,0,0,0,1.8989-1.5083,3.0974,3.0974,0,0,0,.1064-.7988Z"/><line x1="30.9665" y1="4.4557" x2="30.9665" y2="27.3725" style="fill:#58595b"/><path d="M39.5317,26.3086a1.7032,1.7032,0,0,0,.9038.273A.9567.9567,0,0,0,41.5,25.6084c0-.5254-.28-.8408-.8613-1.1069-.5884-.2451-1.1138-.6372-1.1138-1.3028a1.1968,1.1968,0,0,1,1.2886-1.1836,1.5059,1.5059,0,0,1,.84.21l-.1259.2729a1.3163,1.3163,0,0,0-.7422-.21.846.846,0,0,0-.9385.84c0,.5391.3008.7915.8965,1.0713.707.3506,1.0786.7217,1.0786,1.3731a1.2716,1.2716,0,0,1-1.4009,1.2885,1.85,1.85,0,0,1-1.0088-.2871Z"/><path d="M45.2382,25.0967c0,1.2471-.7495,1.772-1.4287,1.772-.7495,0-1.373-.6231-1.373-1.73,0-1.1768.68-1.772,1.4218-1.772C44.65,23.3672,45.2382,24.0044,45.2382,25.0967Zm-2.4721.0283c0,.75.4062,1.4707,1.0644,1.4707s1.0786-.7212,1.0786-1.4917c0-.5884-.2734-1.4639-1.0649-1.4639C43.0742,23.64,42.7661,24.4526,42.7661,25.125Z"/><path d="M46.0273,24.3755c0-.3081-.0137-.6445-.0279-.9385h.3013l.0142.6446h.0137a.9865.9865,0,0,1,.89-.7144.5785.5785,0,0,1,.1118.0068v.3223a.6493.6493,0,0,0-.126-.0073c-.455,0-.7631.4136-.8335.9106a2.2678,2.2678,0,0,0-.021.3081v1.8911h-.3222Z"/><path d="M49.5566,26.7988l-.0425-.4482h-.021a1.08,1.08,0,0,1-.9385.5181.88.88,0,0,1-.9175-.9244c0-.7841.6656-1.2255,1.8492-1.2187v-.0981c0-.4063-.07-.9874-.7774-.9874a1.3173,1.3173,0,0,0-.7353.2242l-.0982-.2383a1.6034,1.6034,0,0,1,.8824-.2588c.8125,0,1.0507.5879,1.0507,1.2534v1.3936a5.7536,5.7536,0,0,0,.042.7846Zm-.07-1.8c-.5884-.0141-1.5059.07-1.5059.9034a.6064.6064,0,0,0,.6094.6933.8715.8715,0,0,0,.8686-.6655.7406.7406,0,0,0,.0279-.2031Z"/><path d="M50.6894,23.437l.77,2.15c.0913.2588.168.5249.2241.7422h.0142c.063-.21.147-.4761.2309-.7563l.7217-2.1363h.3428l-.8472,2.3184a5.9218,5.9218,0,0,1-1.0576,2.1782,2.1343,2.1343,0,0,1-.56.3921l-.126-.273a1.7412,1.7412,0,0,0,.5605-.4135,2.848,2.848,0,0,0,.49-.7915.5422.5422,0,0,0,.042-.1607.501.501,0,0,0-.0352-.14l-1.1138-3.11Z"/><path d="M55.22,26.7988l-.0425-.4482h-.021a1.08,1.08,0,0,1-.9385.5181.88.88,0,0,1-.9175-.9244c0-.7841.6656-1.2255,1.8492-1.2187v-.0981c0-.4063-.07-.9874-.7774-.9874a1.3173,1.3173,0,0,0-.7353.2242l-.0982-.2383a1.6033,1.6033,0,0,1,.8823-.2588c.8125,0,1.0508.5879,1.0508,1.2534v1.3936a5.7536,5.7536,0,0,0,.042.7846Zm-.07-1.8c-.5884-.0141-1.5059.07-1.5059.9034a.6064.6064,0,0,0,.6094.6933.8715.8715,0,0,0,.8686-.6655.7406.7406,0,0,0,.0279-.2031Z"/><path d="M58.4179,25.1528l-.5185,1.646H57.57l1.5268-4.7207h.3154l1.5269,4.7207h-.33l-.5322-1.646Zm1.5689-.2729-.49-1.499a7.9831,7.9831,0,0,1-.2383-.91h-.021c-.0629.3081-.14.5879-.2309.9033L58.5087,24.88Z"/><path d="M61.63,24.3755c0-.3081-.0137-.6445-.0278-.9385h.3012l.0142.6446h.0137a.9865.9865,0,0,1,.89-.7144.578.578,0,0,1,.1118.0068v.3223a.6482.6482,0,0,0-.1259-.0073c-.4551,0-.7632.4136-.8335.9106a2.2518,2.2518,0,0,0-.021.3081v1.8911H61.63Z"/><path d="M63.9824,22.5054a.2576.2576,0,0,1-.2662.28.2536.2536,0,0,1-.2451-.28.2624.2624,0,0,1,.252-.28A.26.26,0,0,1,63.9824,22.5054Zm-.42,4.2934V23.437h.3223v3.3618Z"/><path d="M66.5805,26.7988l-.042-.4482H66.517a1.08,1.08,0,0,1-.9384.5181.88.88,0,0,1-.9175-.9244c0-.7841.6655-1.2255,1.8491-1.2187v-.0981c0-.4063-.07-.9874-.7774-.9874a1.3175,1.3175,0,0,0-.7353.2242l-.0981-.2383a1.6028,1.6028,0,0,1,.8823-.2588c.8125,0,1.0508.5879,1.0508,1.2534v1.3936a5.7538,5.7538,0,0,0,.0419.7846Zm-.07-1.8c-.5884-.0141-1.5059.07-1.5059.9034a.6064.6064,0,0,0,.6094.6933.8712.8712,0,0,0,.8687-.6655.74.74,0,0,0,.0278-.2031Z"/><path d="M67.706,26.3716a1.321,1.321,0,0,0,.6792.2173.6363.6363,0,0,0,.7217-.6377c0-.3428-.1822-.5532-.63-.7632-.4976-.231-.8057-.5112-.8057-.9316a.9042.9042,0,0,1,.9737-.8892,1.1913,1.1913,0,0,1,.6865.2031l-.1333.2661a.96.96,0,0,0-.5952-.1963.5632.5632,0,0,0-.6094.5674c0,.3291.1963.4761.6162.6866.4766.2168.8193.49.8193,1.0083a.9566.9566,0,0,1-1.0644.9594,1.3761,1.3761,0,0,1-.7773-.2241Z"/><path d="M69.7993,27.6812a9.6153,9.6153,0,0,0,.3637-1.4849l.4273-.07a8.7994,8.7994,0,0,1-.5391,1.52Z"/><path d="M74.7841,24.4526H73.0893v2.066h1.9048v.28H72.767V22.0781h2.1221v.28h-1.8v1.814h1.6948Z"/><path d="M75.707,24.3755c0-.3081-.0137-.6445-.0279-.9385H75.98l.0142.6446h.0136a.9865.9865,0,0,1,.89-.7144.5785.5785,0,0,1,.1118.0068v.3223a.65.65,0,0,0-.126-.0073c-.4551,0-.7632.4136-.8335.9106a2.2678,2.2678,0,0,0-.021.3081v1.8911H75.707Z"/><path d="M78.059,22.5054a.2576.2576,0,0,1-.2661.28.2535.2535,0,0,1-.2451-.28.2624.2624,0,0,1,.2519-.28A.26.26,0,0,1,78.059,22.5054Zm-.42,4.2934V23.437h.3223v3.3618Z"/><path d="M81.0771,26.6655a1.81,1.81,0,0,1-.8472.1963,1.5145,1.5145,0,0,1-1.4712-1.7158,1.6208,1.6208,0,0,1,1.5762-1.7788,1.5149,1.5149,0,0,1,.7563.1821l-.1123.273a1.3787,1.3787,0,0,0-.686-.1753c-.8125,0-1.2046.7217-1.2046,1.4848,0,.89.49,1.45,1.19,1.45a1.5933,1.5933,0,0,0,.7144-.168Z"/><path d="M86.8461,24.5508c-.0425-.7144-.0981-1.541-.0844-2.0732h-.0279c-.1469.5253-.3222,1.0717-.5674,1.7651l-.9033,2.5561H85.06l-.8477-2.48c-.2519-.7353-.434-1.3027-.56-1.8417h-.021c-.0073.5673-.042,1.3515-.0913,2.1362l-.126,2.185h-.3223l.3155-4.7207h.3711l.9106,2.6338c.2031.6162.3569,1.0713.4829,1.5547h.021c.1123-.4692.2661-.9106.4834-1.5478l.9248-2.6407H87l.2945,4.7207h-.3223Z"/><path d="M89.9037,26.7988l-.0419-.4482H89.84a1.08,1.08,0,0,1-.9385.5181.88.88,0,0,1-.9175-.9244c0-.7841.6655-1.2255,1.8491-1.2187v-.0981c0-.4063-.07-.9874-.7773-.9874a1.3176,1.3176,0,0,0-.7354.2242l-.0981-.2383a1.6031,1.6031,0,0,1,.8823-.2588c.8125,0,1.0508.5879,1.0508,1.2534v1.3936a5.7376,5.7376,0,0,0,.042.7846Zm-.07-1.8c-.5883-.0141-1.5058.07-1.5058.9034a.6064.6064,0,0,0,.6093.6933.8712.8712,0,0,0,.8687-.6655.74.74,0,0,0,.0278-.2031Z"/><path d="M91.162,21.8613h.3223v4.9375H91.162Z"/><path d="M94.9648,21.8613v4.188c0,.2173.0137.5464.0278.75h-.2939l-.021-.5815h-.021a1.1046,1.1046,0,0,1-1.0508.6514c-.7212,0-1.2959-.6372-1.2959-1.7017,0-1.1484.63-1.8,1.352-1.8a1.0329,1.0329,0,0,1,.9595.5459h.0142V21.8613Zm-.3291,2.8853a2.1051,2.1051,0,0,0-.021-.2871A.9719.9719,0,0,0,93.69,23.64c-.6724,0-1.05.6656-1.05,1.4991,0,.7563.3218,1.4565,1.0224,1.4565a.9824.9824,0,0,0,.9454-.84,1.07,1.07,0,0,0,.0283-.2661Z"/><path d="M98.5488,25.0967c0,1.2471-.7495,1.772-1.4287,1.772-.75,0-1.3731-.6231-1.3731-1.73,0-1.1768.68-1.772,1.4219-1.772C97.96,23.3672,98.5488,24.0044,98.5488,25.0967Zm-2.4722.0283c0,.75.4062,1.4707,1.0645,1.4707S98.22,25.8745,98.22,25.104c0-.5884-.2735-1.4639-1.065-1.4639C96.3847,23.64,96.0766,24.4526,96.0766,25.125Z"/><path d="M99.3383,24.2354c0-.3433-.0137-.5391-.0278-.7984h.3013l.021.5464h.0141a1.1256,1.1256,0,0,1,1.0293-.6162c.3364,0,1.0508.189,1.0508,1.3237v2.1079h-.3223V24.7466c0-.5742-.1889-1.1-.8193-1.1a.9326.9326,0,0,0-.8828.75.966.966,0,0,0-.042.2944v2.1079h-.3223Z"/><path d="M104.4,26.7988l-.0425-.4482h-.0209a1.08,1.08,0,0,1-.9385.5181.88.88,0,0,1-.9175-.9244c0-.7841.6655-1.2255,1.8491-1.2187v-.0981c0-.4063-.07-.9874-.7773-.9874a1.3176,1.3176,0,0,0-.7354.2242l-.0981-.2383a1.6031,1.6031,0,0,1,.8823-.2588c.8125,0,1.0508.5879,1.0508,1.2534v1.3936a5.7376,5.7376,0,0,0,.042.7846Zm-.07-1.8c-.5884-.0141-1.5058.07-1.5058.9034a.6064.6064,0,0,0,.6093.6933.8717.8717,0,0,0,.8687-.6655.74.74,0,0,0,.0278-.2031Z"/><path d="M108.0688,21.8613v4.188c0,.2173.0137.5464.0278.75h-.2939l-.021-.5815h-.021a1.1046,1.1046,0,0,1-1.0508.6514c-.7212,0-1.2959-.6372-1.2959-1.7017,0-1.1484.63-1.8,1.3521-1.8a1.0329,1.0329,0,0,1,.9594.5459h.0142V21.8613Zm-.3291,2.8853a2.0309,2.0309,0,0,0-.0215-.2871.9713.9713,0,0,0-.9243-.8194c-.6724,0-1.05.6656-1.05,1.4991,0,.7563.3218,1.4565,1.0225,1.4565a.9824.9824,0,0,0,.9453-.84,1.07,1.07,0,0,0,.0283-.2661Z"/><path d="M111.6528,25.0967c0,1.2471-.7495,1.772-1.4287,1.772-.75,0-1.3731-.6231-1.3731-1.73,0-1.1768.68-1.772,1.4219-1.772C111.0644,23.3672,111.6528,24.0044,111.6528,25.0967Zm-2.4722.0283c0,.75.4058,1.4707,1.0645,1.4707s1.0786-.7212,1.0786-1.4917c0-.5884-.2735-1.4639-1.0645-1.4639C109.4887,23.64,109.1806,24.4526,109.1806,25.125Z"/><path d="M111.9316,27.6812a9.6038,9.6038,0,0,0,.3637-1.4849l.4273-.07a8.7994,8.7994,0,0,1-.5391,1.52Z"/><path d="M115.768,22.0781h.3223v3.334c0,1.1-.5044,1.4566-1.1768,1.4566a1.5443,1.5443,0,0,1-.49-.084l.063-.273a1.0852,1.0852,0,0,0,.4131.0772c.5605,0,.8686-.2525.8686-1.2329Z"/><path d="M117.1879,25.0547c0,1.1626.5532,1.5269,1.149,1.5269a1.5524,1.5524,0,0,0,.8051-.1748l.084.2519a1.8851,1.8851,0,0,1-.9311.2031c-.8965,0-1.4292-.7-1.4292-1.6948,0-1.1064.5673-1.8,1.3588-1.8.9737,0,1.1695.9663,1.1695,1.4844a1.7348,1.7348,0,0,1-.0069.2031Zm1.87-.2588c.0069-.5747-.2309-1.1558-.8754-1.1558-.6373,0-.9244.63-.98,1.1558Z"/><path d="M121.83,26.7988l-.0425-.4482h-.021a1.08,1.08,0,0,1-.9384.5181.88.88,0,0,1-.9175-.9244c0-.7841.6655-1.2255,1.8491-1.2187v-.0981c0-.4063-.07-.9874-.7773-.9874a1.3176,1.3176,0,0,0-.7354.2242l-.0981-.2383a1.6028,1.6028,0,0,1,.8823-.2588c.8125,0,1.0508.5879,1.0508,1.2534v1.3936a5.7376,5.7376,0,0,0,.042.7846Zm-.07-1.8c-.5884-.0141-1.5059.07-1.5059.9034a.6064.6064,0,0,0,.6094.6933.8717.8717,0,0,0,.8687-.6655.74.74,0,0,0,.0278-.2031Z"/><path d="M123.0888,24.2354c0-.3433-.0137-.5391-.0278-.7984h.3012l.021.5464h.0142a1.1256,1.1256,0,0,1,1.0293-.6162c.3364,0,1.0508.189,1.0508,1.3237v2.1079h-.3223V24.7466c0-.5742-.189-1.1-.8193-1.1a.9326.9326,0,0,0-.8828.75.966.966,0,0,0-.042.2944v2.1079h-.3223Z"/><path d="M127.8422,24.7818v.28h-1.6528v-.28Z"/><path d="M128.5839,22.0781h.3223v4.4478h1.8911v.2729h-2.2134Z"/><path d="M133.6391,25.9722c0,.3222.0142.5815.0278.8266h-.2939l-.0283-.5254h-.0137a1.1574,1.1574,0,0,1-1.0156.5953c-.4624,0-1.03-.28-1.03-1.4078V23.437h.3222v1.9541c0,.6934.1822,1.1978.7847,1.1978a.9653.9653,0,0,0,.8755-.6514,1.4313,1.4313,0,0,0,.0488-.3574V23.437h.3223Z"/><path d="M136.7465,26.6655a1.81,1.81,0,0,1-.8471.1963,1.5145,1.5145,0,0,1-1.4712-1.7158,1.6208,1.6208,0,0,1,1.5761-1.7788,1.5153,1.5153,0,0,1,.7564.1821l-.1123.273a1.3794,1.3794,0,0,0-.6861-.1753c-.8125,0-1.2045.7217-1.2045,1.4848,0,.89.49,1.45,1.19,1.45a1.5925,1.5925,0,0,0,.7143-.168Z"/><path d="M138.88,22.1343a4.5191,4.5191,0,0,1,.9033-.0908,1.567,1.567,0,0,1,1.1416.3847,1.24,1.24,0,0,1,.3506.9317,1.3833,1.3833,0,0,1-.2944.9175,1.6368,1.6368,0,0,1-1.2954.54,2.0535,2.0535,0,0,1-.4834-.042v2.0239H138.88Zm.3223,2.3535a1.6865,1.6865,0,0,0,.49.0557,1.1055,1.1055,0,0,0,1.2539-1.1626c0-.6792-.4414-1.0576-1.1767-1.0576a2.5523,2.5523,0,0,0-.5674.0493Z"/><path d="M143.5229,26.7988l-.042-.4482h-.0215a1.08,1.08,0,0,1-.9385.5181.88.88,0,0,1-.9174-.9244c0-.7841.6655-1.2255,1.8491-1.2187v-.0981c0-.4063-.07-.9874-.7774-.9874a1.3173,1.3173,0,0,0-.7353.2242l-.0982-.2383a1.6034,1.6034,0,0,1,.8824-.2588c.8125,0,1.0507.5879,1.0507,1.2534v1.3936a5.7536,5.7536,0,0,0,.042.7846Zm-.07-1.8c-.5884-.0141-1.5059.07-1.5059.9034a.6064.6064,0,0,0,.6094.6933.871.871,0,0,0,.8686-.6655.7406.7406,0,0,0,.0279-.2031Z"/><path d="M144.7812,24.3755c0-.3081-.0137-.6445-.0278-.9385h.3012l.0142.6446h.0137a.9865.9865,0,0,1,.89-.7144.578.578,0,0,1,.1118.0068v.3223a.6488.6488,0,0,0-.126-.0073c-.455,0-.7631.4136-.8335.9106a2.268,2.268,0,0,0-.0209.3081v1.8911h-.3223Z"/><path d="M149.144,25.0967c0,1.2471-.75,1.772-1.4287,1.772-.75,0-1.3731-.6231-1.3731-1.73,0-1.1768.68-1.772,1.4219-1.772C148.5556,23.3672,149.144,24.0044,149.144,25.0967Zm-2.4722.0283c0,.75.4058,1.4707,1.0645,1.4707s1.0786-.7212,1.0786-1.4917c0-.5884-.2735-1.4639-1.0645-1.4639C146.98,23.64,146.6718,24.4526,146.6718,25.125Z"/><path d="M152.2656,25.9722c0,.3222.0141.5815.0278.8266h-.294l-.0283-.5254h-.0136a1.1575,1.1575,0,0,1-1.0157.5953c-.4624,0-1.03-.28-1.03-1.4078V23.437h.3223v1.9541c0,.6934.1821,1.1978.7847,1.1978a.9654.9654,0,0,0,.8755-.6514,1.4313,1.4313,0,0,0,.0488-.3574V23.437h.3223Z"/><path d="M153.7485,22.4917v.9453h.8618v.2661h-.8618v2.22c0,.434.1333.6655.4482.6655a.9507.9507,0,0,0,.33-.0493l.042.2524a1.0879,1.0879,0,0,1-.42.07.6636.6636,0,0,1-.5391-.2241,1.2232,1.2232,0,0,1-.1894-.7915V23.7031h-.5181V23.437h.5181v-.8335Z"/><path d="M155.2739,23.437l.77,2.15c.0913.2588.1679.5249.2241.7422h.0142c.0629-.21.1469-.4761.2309-.7563l.7217-2.1363h.3428l-.8472,2.3184a5.9218,5.9218,0,0,1-1.0576,2.1782,2.1326,2.1326,0,0,1-.5606.3921l-.1259-.273a1.7423,1.7423,0,0,0,.5605-.4135,2.85,2.85,0,0,0,.49-.7915.539.539,0,0,0,.042-.1607.5.5,0,0,0-.0351-.14l-1.1138-3.11Z"/><path d="M160.9238,24.7818v.28h-1.6529v-.28Z"/><path d="M165.88,26.6587a2.5779,2.5779,0,0,1-1.0854.2031c-1.0225,0-2.003-.6865-2.003-2.3882a2.1666,2.1666,0,0,1,2.1363-2.4585,2.0588,2.0588,0,0,1,.9311.1753l-.105.28a1.9019,1.9019,0,0,0-.84-.1753c-1.0366,0-1.7861.7354-1.7861,2.1641,0,1.394.6933,2.1221,1.7583,2.1221a2.1036,2.1036,0,0,0,.9033-.189Z"/><path d="M166.6142,26.7988V22.0781h.3081l1.5762,2.6827c.3359.5952.602,1.0927.8193,1.583l.0137-.0074c-.0488-.7143-.0557-1.2324-.0557-1.9887v-2.27h.315v4.7207h-.3081l-1.5621-2.6894a14.8094,14.8094,0,0,1-.8261-1.583l-.0142.0073c.042.6231.042,1.1343.042,1.9961v2.269Z"/><path d="M170.6528,22.1411a4.1559,4.1559,0,0,1,.9033-.0976,1.572,1.572,0,0,1,1.17.3779,1.216,1.216,0,0,1,.3223.8545,1.2421,1.2421,0,0,1-.8828,1.2329v.0137c.3784.1123.6025.4692.7143,1.0434a6.0279,6.0279,0,0,0,.3223,1.2329h-.336a6.8731,6.8731,0,0,1-.2871-1.1626c-.1333-.6792-.4135-.98-1.0087-1.0014h-.5953v2.164h-.3222Zm.3222,2.2344h.6026a1.0323,1.0323,0,0,0,1.1416-1.0435c0-.6933-.4483-1.0156-1.1768-1.0156a2.4091,2.4091,0,0,0-.5674.0562Z"/><path d="M173.7607,26.3086a1.7032,1.7032,0,0,0,.9038.273.9567.9567,0,0,0,1.0644-.9732c0-.5254-.28-.8408-.8613-1.1069-.5884-.2451-1.1138-.6372-1.1138-1.3028a1.1968,1.1968,0,0,1,1.2886-1.1836,1.5066,1.5066,0,0,1,.84.21l-.126.2729a1.3163,1.3163,0,0,0-.7422-.21.846.846,0,0,0-.9385.84c0,.5391.3013.7915.8965,1.0713.707.3506,1.0786.7217,1.0786,1.3731a1.2716,1.2716,0,0,1-1.4009,1.2885,1.85,1.85,0,0,1-1.0088-.2871Z"/><path d="M176.3574,27.0791l1.9892-5.0708h.3218l-2.0029,5.0708Z"/><path d="M179.06,26.3086a1.7035,1.7035,0,0,0,.9038.273.9568.9568,0,0,0,1.0645-.9732c0-.5254-.28-.8408-.8614-1.1069-.5883-.2451-1.1137-.6372-1.1137-1.3028a1.1968,1.1968,0,0,1,1.2885-1.1836,1.5066,1.5066,0,0,1,.84.21l-.126.2729a1.3163,1.3163,0,0,0-.7422-.21.846.846,0,0,0-.9385.84c0,.5391.3013.7915.8965,1.0713.7071.3506,1.0786.7217,1.0786,1.3731a1.2715,1.2715,0,0,1-1.4008,1.2885,1.85,1.85,0,0,1-1.0088-.2871Z"/><path d="M182.7138,25.1528l-.5185,1.646h-.3292l1.5269-4.7207h.3154l1.5269,4.7207h-.33l-.5322-1.646Zm1.5689-.2729-.49-1.499a7.9831,7.9831,0,0,1-.2383-.91h-.021c-.0629.3081-.14.5879-.2309.9033l-.4976,1.5059Z"/><path d="M185.94,22.1411a4.1559,4.1559,0,0,1,.9033-.0976,1.5728,1.5728,0,0,1,1.17.3779,1.216,1.216,0,0,1,.3223.8545,1.2421,1.2421,0,0,1-.8828,1.2329v.0137c.3784.1123.6025.4692.7143,1.0434a6.0279,6.0279,0,0,0,.3223,1.2329h-.336a6.9252,6.9252,0,0,1-.2871-1.1626c-.1333-.6792-.4135-.98-1.0088-1.0014h-.5952v2.164H185.94Zm.3222,2.2344h.6021a1.0324,1.0324,0,0,0,1.1421-1.0435c0-.6933-.4483-1.0156-1.1768-1.0156a2.4091,2.4091,0,0,0-.5674.0562Z"/><path d="M189.5107,22.0781v4.7207h-.3223V22.0781Z"/><path d="M190.0424,27.0791l1.9893-5.0708h.3218l-2.003,5.0708Z"/><path d="M192.8842,22.1411a5.6723,5.6723,0,0,1,1.0225-.0976,2.2048,2.2048,0,0,1,1.625.5459,2.3036,2.3036,0,0,1,.6094,1.7231,2.6818,2.6818,0,0,1-.5884,1.8491,2.3064,2.3064,0,0,1-1.7862.6724,7.2309,7.2309,0,0,1-.8823-.042Zm.3223,4.3848a5.0466,5.0466,0,0,0,.6025.0278c1.2676,0,1.9956-.7212,1.9956-2.2134a1.7565,1.7565,0,0,0-1.9116-2.017,4.1658,4.1658,0,0,0-.6865.0561Z"/><path d="M198.9472,24.4526h-1.6948v2.066h1.9048v.28H196.93V22.0781h2.1221v.28h-1.8v1.814h1.6948Z"/><path d="M200.9282,26.7988l-1.4219-4.7207h.3359l.7427,2.4654c.1958.6445.3853,1.289.5039,1.8423h.021a18.4779,18.4779,0,0,1,.5327-1.8423l.8052-2.4654h.3364l-1.5552,4.7207Z"/><path d="M203.3212,22.0781h.3223v4.4478h1.8911v.2729h-2.2134Z"/><path d="M209.28,24.4033c0,1.6953-.8891,2.4654-1.8628,2.4654-.9946,0-1.8-.833-1.8-2.3951,0-1.604.8335-2.4653,1.87-2.4653C208.4955,22.0083,209.28,22.8486,209.28,24.4033Zm-3.3266.0635c0,1.0151.49,2.1289,1.4917,2.1289,1.0088,0,1.499-1.0854,1.499-2.1782,0-.9663-.4414-2.1362-1.4917-2.1362C206.3945,22.2813,205.9531,23.416,205.9531,24.4668Z"/><path d="M213.0805,26.6167a3.1243,3.1243,0,0,1-1.19.231,1.9629,1.9629,0,0,1-1.4781-.5743,2.5344,2.5344,0,0,1-.6162-1.8,2.1931,2.1931,0,0,1,2.2129-2.4443,2.35,2.35,0,0,1,.9595.189l-.105.2734a1.9674,1.9674,0,0,0-.8681-.1753c-1.086,0-1.8633.7354-1.8633,2.1153,0,1.4287.7353,2.1289,1.8071,2.1289a1.8881,1.8881,0,0,0,.8125-.1329V24.7256h-.98V24.46h1.31Z"/><path d="M299.4156,24.5166a2.34,2.34,0,0,1-.3314,1.1954,2.3729,2.3729,0,0,1-.8906.8814,2.5139,2.5139,0,0,1-1.2323.3241,2.4774,2.4774,0,0,1-2.1333-1.2055,2.4051,2.4051,0,0,1,0-2.4009,2.4778,2.4778,0,0,1,2.1333-1.2056,2.514,2.514,0,0,1,1.2323.3242,2.4238,2.4238,0,0,1,1.222,2.0869Z" style="fill:#fff;fill-rule:evenodd"/><path d="M296.93,21.8421a2.7039,2.7039,0,0,1,1.9469.78,2.5739,2.5739,0,0,1,.59.8611,2.8679,2.8679,0,0,1,.1968,1.0333,2.5113,2.5113,0,0,1-.7767,1.864,2.7866,2.7866,0,0,1-1.9572.8,2.7706,2.7706,0,0,1-1.0356-.2026,2.8242,2.8242,0,0,1-.8906-.5875,2.6813,2.6813,0,0,1-.59-.8611,2.6075,2.6075,0,0,1-.2071-1.0131,2.62,2.62,0,0,1,.8077-1.8944,2.6158,2.6158,0,0,1,1.9158-.78Zm.01.4863a2.1413,2.1413,0,0,0-1.5741.6382,2.2164,2.2164,0,0,0-.4971.7092,2.1379,2.1379,0,0,0-.1657.8408,2.0414,2.0414,0,0,0,.1657.8206,2.11,2.11,0,0,0,.4971.7091,2.2379,2.2379,0,0,0,.7249.4762,2.1827,2.1827,0,0,0,.8492.162,2.22,2.22,0,0,0,.8491-.162,2.5124,2.5124,0,0,0,.7456-.4762,2.0468,2.0468,0,0,0,.6317-1.53,2.0674,2.0674,0,0,0-.1657-.8408,2.151,2.151,0,0,0-.4763-.7092,2.1985,2.1985,0,0,0-1.5844-.6382Zm-.0311,1.7425-.3728.1823a.3138.3138,0,0,0-.1346-.1621.3867.3867,0,0,0-.1657-.0506c-.2382,0-.3625.1519-.3625.4761a.5374.5374,0,0,0,.0932.3343.3058.3058,0,0,0,.2693.1317.3447.3447,0,0,0,.3417-.2229l.3314.1621a.7164.7164,0,0,1-.3.3039.7261.7261,0,0,1-.4142.1115.8075.8075,0,0,1-.59-.2128.85.85,0,0,1-.2278-.6078.8329.8329,0,0,1,.2278-.6078.7813.7813,0,0,1,.58-.2229.7608.7608,0,0,1,.7249.385Zm1.5741,0-.3625.1823a.3634.3634,0,0,0-.3107-.2127c-.2381,0-.3624.1519-.3624.4761a.5374.5374,0,0,0,.0932.3343.3055.3055,0,0,0,.2692.1317.3538.3538,0,0,0,.3418-.2229l.3417.1621a.8043.8043,0,0,1-.3107.3039.7257.7257,0,0,1-.4142.1115.7462.7462,0,0,1-.8077-.8206.7933.7933,0,0,1,.2278-.6078.86.86,0,0,1,1.2945.1621Z" style="fill-rule:evenodd"/><path d="M305.7222,24.5369a2.2338,2.2338,0,0,1-.321,1.1751,2.394,2.394,0,0,1-.88.8712,2.5353,2.5353,0,0,1-1.2116.3141,2.4653,2.4653,0,0,1-1.2012-.3141,2.4207,2.4207,0,0,1-.8906-.8712,2.3109,2.3109,0,0,1,0-2.35,2.4207,2.4207,0,0,1,.8906-.8712,2.4664,2.4664,0,0,1,1.2012-.3141,2.5364,2.5364,0,0,1,1.2116.3141,2.394,2.394,0,0,1,.88.8712,2.2339,2.2339,0,0,1,.321,1.1752Z" style="fill:#fff;fill-rule:evenodd"/><path d="M303.299,21.8421a2.6954,2.6954,0,0,1,1.9365.77,2.57,2.57,0,0,1,.7974,1.9045,2.4417,2.4417,0,0,1-.7871,1.864,2.6916,2.6916,0,0,1-1.9468.8,2.6591,2.6591,0,0,1-1.9262-.79,2.5074,2.5074,0,0,1-.8077-1.8742,2.5891,2.5891,0,0,1,.8077-1.9045,2.6884,2.6884,0,0,1,1.9262-.77Zm0,.4863a2.1579,2.1579,0,0,0-1.5741.6382,2.1228,2.1228,0,0,0-.6628,1.55,2.0626,2.0626,0,0,0,.6628,1.53,2.1609,2.1609,0,0,0,1.5741.6484,2.2346,2.2346,0,0,0,1.5947-.6585,1.9734,1.9734,0,0,0,.6421-1.53,2.0814,2.0814,0,0,0-.6524-1.54,2.1817,2.1817,0,0,0-1.5844-.6382Zm.7352,1.52v1.0941h-.3107v1.2967h-.8491V24.9421h-.3107V23.848a.1659.1659,0,0,1,.0518-.1216.1732.1732,0,0,1,.1242-.0506h1.1185a.1732.1732,0,0,1,.1242.0506.1659.1659,0,0,1,.0518.1216Zm-1.1184-.6889a.3832.3832,0,1,1,.3832.3748.3364.3364,0,0,1-.3832-.3748Z" style="fill-rule:evenodd"/><path d="M312.0909,24.5065a2.4053,2.4053,0,0,1-.3313,1.2055,2.43,2.43,0,0,1-.9113.8814,2.4875,2.4875,0,0,1-3.3656-.8814,2.4044,2.4044,0,0,1-.3314-1.2055,2.35,2.35,0,0,1,.3314-1.2056,2.4947,2.4947,0,0,1,3.3656-.8813,2.4294,2.4294,0,0,1,.9113.8813,2.3506,2.3506,0,0,1,.3313,1.2056Z" style="fill:#fff;fill-rule:evenodd"/><path d="M311.6042,22.6121a2.8071,2.8071,0,0,0-3.8627,0,2.59,2.59,0,0,0-.8077,1.9045,2.54,2.54,0,0,0,.8077,1.8742,2.6593,2.6593,0,0,0,1.9262.79,2.7648,2.7648,0,0,0,1.9572-.79,2.5238,2.5238,0,0,0,.7767-1.8742,2.57,2.57,0,0,0-.7974-1.9045Zm-.3417,3.4241a2.2174,2.2174,0,0,1-1.5948.6585,2.1844,2.1844,0,0,1-1.5741-.6484,2.0684,2.0684,0,0,1-.6627-1.54,2.313,2.313,0,0,1,.1139-.7092l.7249.3141h-.0518v.3242h.2589c0,.04-.01.081-.01.1317v.0709h-.2485v.3242h.3a1.2447,1.2447,0,0,0,.2589.5774,1.3542,1.3542,0,0,0,1.1081.5065,1.6053,1.6053,0,0,0,.7145-.1621l-.1035-.4964a1.5167,1.5167,0,0,1-.5282.1115.8223.8223,0,0,1-.59-.2229.8116.8116,0,0,1-.1449-.314h.9941l1.4084.6078a1.7712,1.7712,0,0,1-.3728.466Zm-1.7708-1.398h0Zm.8491-.2026h.0414v-.3242h-.7766l-.3107-.1317a.38.38,0,0,1,.0932-.152.6984.6984,0,0,1,.5592-.2431,1.5282,1.5282,0,0,1,.5074.1013l.1347-.5065a1.8267,1.8267,0,0,0-.6939-.1317,1.4134,1.4134,0,0,0-1.0563.4558c-.0517.0608-.1035.1419-.1553.2128l-.8906-.385a2.03,2.03,0,0,1,.3-.3647,2.1673,2.1673,0,0,1,1.5741-.6483,2.1905,2.1905,0,0,1,1.5844.6483,2.0557,2.0557,0,0,1,.6524,1.55,2.5764,2.5764,0,0,1-.0621.5673l-1.5016-.6483Z" style="fill-rule:evenodd"/><path d="M318.5115,24.4963a2.3507,2.3507,0,0,1-.3314,1.2056,2.4563,2.4563,0,0,1-.9113.8915,2.505,2.505,0,0,1-2.4647,0,2.4563,2.4563,0,0,1-.9113-.8915,2.3507,2.3507,0,0,1-.3314-1.2056,2.3868,2.3868,0,0,1,1.2427-2.097,2.5043,2.5043,0,0,1,2.4647,0,2.3868,2.3868,0,0,1,1.2427,2.097Z" style="fill:#fff;fill-rule:evenodd"/><path d="M316.0261,21.8421a2.6629,2.6629,0,0,1,1.9365.78,2.6493,2.6493,0,0,1,.0207,3.7686,2.73,2.73,0,0,1-1.9572.79,2.6527,2.6527,0,0,1-1.9158-.79,2.5074,2.5074,0,0,1-.8077-1.8742,2.567,2.567,0,0,1,.8077-1.8944,2.6494,2.6494,0,0,1,1.9158-.78Zm.01.4863A2.2213,2.2213,0,0,0,313.8,24.5166a2.0469,2.0469,0,0,0,.6628,1.53,2.1443,2.1443,0,0,0,1.5741.6484,2.194,2.194,0,0,0,1.5844-.6585,1.9817,1.9817,0,0,0,.642-1.52,2.0712,2.0712,0,0,0-.6524-1.55,2.1413,2.1413,0,0,0-1.574-.6382Zm1.0252,1.55v.466h-1.978v-.466Zm0,.8611v.4559h-1.978V24.74Z" style="fill-rule:evenodd"/><line x1="0.9591" y1="36.1069" x2="318.4111" y2="36.1069" style="fill:none;stroke:#e6e7e8;stroke-miterlimit:10;stroke-width:0.25px"/></g></g></svg>