<svg xmlns="http://www.w3.org/2000/svg" viewBox="0 0 56.6098 67.4017"><title>00-Fidle-logo-00</title><g id="Calque_2" data-name="Calque 2"><g id="Calque_4" data-name="Calque 4"><path d="M47.9919,32.977a13.424,13.424,0,0,0,5.4811-1.8386,6.7273,6.7273,0,0,1,2.455-.96,15.2069,15.2069,0,0,0-5.9862-17.0857A17.7216,17.7216,0,0,0,37.6058,11.01c-4.3345.7164-8.8269,3.996-10.5862,5.4673C25.961,17.3639,13.369,29.3005,8.1168,26.9216c-3.5532-1.61,2.7909-7.4675-.1189-12.82a.2323.2323,0,0,0-.3874-.0258c-1.4813,1.9984-2.9293,4.3968-4.9019,3.32-.8812-.4812-1.6744-2.0178-2.2858-2.99A.23.23,0,0,0,0,14.5371,24.26,24.26,0,0,0,6.0983,29.3426c4.5289,5.4189,12.465,11.7291,25.2885,13.0059,5.5522.5529,18.7217-1.1976,23.9833-10.6647a13.2741,13.2741,0,0,0-1.2693.63,14.7716,14.7716,0,0,1-5.9875,1.9915c-.1831.0169-.3649.0245-.5466.0245a10.5714,10.5714,0,0,1-5.9687-2.3927,1.1184,1.1184,0,1,1,.8549-1.0851c0,.0183-.0044.0353-.0057.0535C43.53,31.7328,45.7847,33.1928,47.9919,32.977ZM31.2094,37.9323a20.3764,20.3764,0,0,1-4.7961.8712c-1.0832.0006-1.5335-.307-1.748-.768-.5643-1.2134,1.4687-2.9677,3.272-4.2263A.6668.6668,0,1,1,28.7,34.903a10.991,10.991,0,0,0-2.7544,2.5318c.3523.0761,1.4964.1245,4.9176-.7913a.6672.6672,0,0,1,.3459,1.2888Zm15.45-16.2541a2.5468,2.5468,0,0,1,2.4726,2.4538,1.6639,1.6639,0,1,0-1.4731,2.4317,1.7278,1.7278,0,0,0,.3088-.0308,2.37,2.37,0,0,1-1.3083.4025,2.6324,2.6324,0,0,1,0-5.2572ZM38.0706,4.6089a1.3336,1.3336,0,0,0,.524,1.8116c.6453.3553,2.0046-.4177,2.8292.7346.4284.5988-.8963-2.7147-1.5417-3.0708A1.3328,1.3328,0,0,0,38.0706,4.6089Zm6.7939.1428c-1.6619.9743-1.97,5.0031-1.5417,4.4043A7.584,7.584,0,0,1,46.152,7.0878a1.3337,1.3337,0,0,0-1.2875-2.3361ZM43.1787.31c-.85.9831-.2679,3.5325-.1157,3.0651a5.4212,5.4212,0,0,1,1.3687-1.926A.8741.8741,0,0,0,44.41.2135.8656.8656,0,0,0,43.1787.31Z" style="fill:#e12229"/><path d="M2.9731,50.3685h8.3535v1.0034H4.1518v6.7232h6.5728v1.0034H4.1518v8.1777H2.9731Z" style="fill:#808285"/><path d="M15.7407,50.3685V67.2762H14.562V50.3685Z" style="fill:#808285"/><path d="M19.8549,50.5946a27.8016,27.8016,0,0,1,4.3145-.3516c3.0855,0,5.4185.8282,6.8232,2.3081A7.9974,7.9974,0,0,1,33.1,58.3959a9.3118,9.3118,0,0,1-2.2076,6.4218c-1.5053,1.6309-4.039,2.584-7.3,2.584a36.0492,36.0492,0,0,1-3.7378-.15Zm1.1788,15.6782a21.3406,21.3406,0,0,0,2.7343.1255c5.4185,0,8.1026-3.0352,8.1026-7.9272.0254-4.29-2.3579-7.2247-7.7764-7.2247a17.9379,17.9379,0,0,0-3.0605.251Z" style="fill:#808285"/><path d="M36.0844,50.3685h1.1788V66.2728h7.5507v1.0034H36.0844Z" style="fill:#808285"/><path d="M55.2744,58.8724H48.5009v7.4h7.5762v1.0034H47.3222V50.3685h8.3535v1.0034H48.5009V57.869h6.7735Z" style="fill:#808285"/></g></g></svg>