<svg xmlns="http://www.w3.org/2000/svg" viewBox="0 0 6.6741 6.6889"><title>00-Fidle-pdf</title><g id="Calque_2" data-name="Calque 2"><g id="Contains_1" data-name="Contains #1"><path d="M3.4812,1.5766V.1839H1.5592A.604.604,0,0,0,.9571.7861V5.21a.6039.6039,0,0,0,.6021.6021H4.8649A.6038.6038,0,0,0,5.467,5.21V2.1787H4.0833A.6038.6038,0,0,1,3.4812,1.5766Z" style="fill:none;stroke:#000;stroke-linejoin:round;stroke-width:0.3678616155029277px"/><line x1="3.4812" y1="0.1839" x2="5.4715" y2="2.1742" style="fill:none;stroke:#000;stroke-linejoin:round;stroke-width:0.3678616155029277px"/><path d="M.3844,1.3505H2.8073a.3145.3145,0,0,1,.3145.3145V2.9521a.314.314,0,0,1-.314.314H.3844a.314.314,0,0,1-.314-.314V1.6645A.314.314,0,0,1,.3844,1.3505Z" style="fill:#e12229"/><path d="M2.8077,1.4216a.2439.2439,0,0,1,.2433.2431V2.9521a.2441.2441,0,0,1-.2433.2434H.3845a.2441.2441,0,0,1-.2433-.2434V1.6647a.2439.2439,0,0,1,.2433-.2431H2.8077m0-.1412H.3845A.3848.3848,0,0,0,0,1.6647V2.9521a.3849.3849,0,0,0,.3845.3845H2.8077a.3849.3849,0,0,0,.3846-.3845V1.6647A.3849.3849,0,0,0,2.8077,1.28Z" style="fill:#fff"/><path d="M.4142,1.78a1.5711,1.5711,0,0,1,.2851-.0225.4581.4581,0,0,1,.3067.0865.3187.3187,0,0,1,.105.2451.3526.3526,0,0,1-.0943.2583.4365.4365,0,0,1-.311.11.6411.6411,0,0,1-.0679-.0034v.3911H.4142Zm.2236.49a.24.24,0,0,0,.0645.0049.1658.1658,0,0,0,.185-.1748.15.15,0,0,0-.1679-.1616.303.303,0,0,0-.0816.0078Z" style="fill:#fff"/><path d="M1.2535,1.78a1.7814,1.7814,0,0,1,.2837-.0225.5689.5689,0,0,1,.3838.11.5091.5091,0,0,1,.1631.415.5735.5735,0,0,1-.1631.4439.6385.6385,0,0,1-.4316.13,1.5427,1.5427,0,0,1-.2359-.0162Zm.2251.8862a.3211.3211,0,0,0,.0679.0044c.1773.002.3-.1138.3-.3843.0015-.2226-.1045-.3462-.2817-.3462a.3427.3427,0,0,0-.0865.0084Z" style="fill:#fff"/><path d="M2.233,1.7655h.58v.1939H2.4581v.2583h.3311v.19H2.4581v.4375H2.233Z" style="fill:#fff"/><path d="M3.5651,4.9677h.7622L4.2565,3.5068a.2232.2232,0,0,1,.2226-.2227H5.6476a.2224.2224,0,0,1,.2222.2222L5.8771,5.038l.4824-.07h.1572L5.08,6.5839Z" style="fill:#e12229"/><path d="M5.6475,3.3551a.1516.1516,0,0,1,.1517.1509L5.806,5.0385H6.36L5.0781,6.4794l-1.35-1.4409h.5991V3.5068a.1517.1517,0,0,1,.1516-.1517H5.6475m0-.1411H4.479a.2931.2931,0,0,0-.2928.2928V4.8974H3.4026l.2226.2375,1.35,1.4409.1057.1131.1028-.1157,1.2815-1.441.209-.2348H5.9465L5.94,3.5053a.2932.2932,0,0,0-.2928-.2913Z" style="fill:#fff"/></g></g></svg>