<svg xmlns="http://www.w3.org/2000/svg" viewBox="0 0 280.2979 16.1665"><title>00-fidle-header-02</title><g id="Calque_2" data-name="Calque 2"><g id="Calque_4" data-name="Calque 4"><path d="M1.26,2.8882h5.874v1.26H2.751V8.1943H6.8145V9.4365H2.751v5.4126H1.26Z" transform="translate(-1.2598 -2.3384)"/><path d="M15.5967,10.5015c0,3.2119-2.0059,4.5249-3.8506,4.5249-2.0947,0-3.7275-1.6148-3.7275-4.4185,0-2.9458,1.7568-4.5254,3.8515-4.5254C14.0527,6.0825,15.5967,7.7686,15.5967,10.5015Zm-6.0518.0708c0,1.7392.834,3.3183,2.2715,3.3183,1.4024,0,2.2539-1.5971,2.2539-3.354,0-1.4194-.5859-3.3-2.2539-3.3C10.1836,7.2363,9.5449,9.0283,9.5449,10.5723Z" transform="translate(-1.2598 -2.3384)"/><path d="M17.4209,8.7979c0-.9229-.0352-1.775-.07-2.5376h1.33l.0537,1.5791h.0537a2.4525,2.4525,0,0,1,2.2178-1.7569,2.6819,2.6819,0,0,1,.3906.0357v1.455a1.8752,1.8752,0,0,0-.4619-.0356,2.0647,2.0647,0,0,0-1.9522,1.9346,3.2524,3.2524,0,0,0-.07.7451v4.6318H17.4209Z" transform="translate(-1.2598 -2.3384)"/><path d="M22.7969,8.5493c0-.9228-.0362-1.58-.0713-2.289h1.3135l.0888,1.2954h.0352A2.6976,2.6976,0,0,1,26.63,6.0825,2.313,2.313,0,0,1,28.8662,7.68h.0352a3.1007,3.1007,0,0,1,.94-1.065,2.5755,2.5755,0,0,1,1.668-.5322c1.1533,0,2.6084.7808,2.6084,3.5137v5.2529H32.6455V9.8447c0-1.5083-.4785-2.52-1.668-2.52A1.8255,1.8255,0,0,0,29.31,8.6914a2.6672,2.6672,0,0,0-.1065.7808v5.3769H27.7305V9.561c0-1.2422-.4795-2.2363-1.6153-2.2363A1.9176,1.9176,0,0,0,24.376,8.833a2.6355,2.6355,0,0,0-.1065.7632v5.2529H22.7969Z" transform="translate(-1.2598 -2.3384)"/><path d="M40.8223,14.8491,40.6982,13.82h-.0537a2.7816,2.7816,0,0,1-2.36,1.2066A2.3594,2.3594,0,0,1,35.8359,12.56c0-2.0943,1.81-3.1768,4.72-3.1592V9.188c0-.834-.23-1.9873-1.792-1.97a3.6244,3.6244,0,0,0-1.9873.5859L36.44,6.7749A5.0212,5.0212,0,0,1,39.03,6.0825c2.36,0,3.0166,1.5972,3.0166,3.39v3.354a14.2009,14.2009,0,0,0,.124,2.0229Zm-.2481-4.4009c-1.3847-.018-3.23.23-3.23,1.9522a1.3141,1.3141,0,0,0,1.331,1.49,1.8725,1.8725,0,0,0,1.8457-1.3838,1.57,1.57,0,0,0,.0537-.497Z" transform="translate(-1.2598 -2.3384)"/><path d="M46.1074,3.8467V6.26H48.166V7.4136H46.1074v4.7558c0,1.0826.32,1.5972,1.083,1.5972a3.0043,3.0043,0,0,0,.7989-.0889l.07,1.1358a3.3042,3.3042,0,0,1-1.2774.1953,2.0434,2.0434,0,0,1-1.5791-.6211,3.175,3.175,0,0,1-.5859-2.2007V7.4136H43.375V6.26h1.2422V4.2549Z" transform="translate(-1.2598 -2.3384)"/><path d="M51.4121,3.9a.8937.8937,0,0,1-.94.94.8713.8713,0,0,1-.8867-.94.9139.9139,0,1,1,1.8271,0Zm-1.668,10.9492V6.26h1.5088v8.5888Z" transform="translate(-1.2598 -2.3384)"/><path d="M60.6563,10.5015c0,3.2119-2.0049,4.5249-3.8506,4.5249-2.0938,0-3.7266-1.6148-3.7266-4.4185,0-2.9458,1.7568-4.5254,3.8506-4.5254C59.1123,6.0825,60.6563,7.7686,60.6563,10.5015Zm-6.0508.0708c0,1.7392.834,3.3183,2.2715,3.3183,1.4013,0,2.2539-1.5971,2.2539-3.354,0-1.4194-.586-3.3-2.2539-3.3C55.2441,7.2363,54.6055,9.0283,54.6055,10.5723Z" transform="translate(-1.2598 -2.3384)"/><path d="M62.4814,8.5493c0-.9228-.0351-1.58-.07-2.289h1.33l.0713,1.2954h.0537A2.8831,2.8831,0,0,1,66.44,6.0825c1.1884,0,2.7324.7632,2.7324,3.46v5.3061h-1.49V9.7207c0-1.2778-.4257-2.396-1.7392-2.396a1.9924,1.9924,0,0,0-1.8633,1.544,2.936,2.936,0,0,0-.0889.7456v5.2348H62.4814Z" transform="translate(-1.2598 -2.3384)"/><path d="M76.5674,2.8882V14.8491h-1.49V2.8882Z" transform="translate(-1.2598 -2.3384)"/><path d="M79.1572,8.5493c0-.9228-.0361-1.58-.0713-2.289H80.417l.0713,1.2954h.0527a2.8843,2.8843,0,0,1,2.5733-1.4732c1.1894,0,2.7334.7632,2.7334,3.46v5.3061H84.3564V9.7207c0-1.2778-.4257-2.396-1.7392-2.396a1.9942,1.9942,0,0,0-1.8633,1.544,2.982,2.982,0,0,0-.0889.7456v5.2348H79.1572Z" transform="translate(-1.2598 -2.3384)"/><path d="M89.9609,3.8467V6.26H92.02V7.4136H89.9609v4.7558c0,1.0826.32,1.5972,1.083,1.5972a3.0037,3.0037,0,0,0,.7989-.0889l.07,1.1358a3.3042,3.3042,0,0,1-1.2774.1953,2.0434,2.0434,0,0,1-1.5791-.6211,3.175,3.175,0,0,1-.5859-2.2007V7.4136H87.2285V6.26h1.2422V4.2549Z" transform="translate(-1.2598 -2.3384)"/><path d="M93.5977,8.7979c0-.9229-.0352-1.775-.07-2.5376h1.33l.0537,1.5791h.0537a2.4525,2.4525,0,0,1,2.2178-1.7569,2.6819,2.6819,0,0,1,.3906.0357v1.455a1.8744,1.8744,0,0,0-.4619-.0356,2.0645,2.0645,0,0,0-1.9521,1.9346,3.2468,3.2468,0,0,0-.07.7451v4.6318H93.5977Z" transform="translate(-1.2598 -2.3384)"/><path d="M105.8057,10.5015c0,3.2119-2.0059,4.5249-3.8506,4.5249-2.0947,0-3.7276-1.6148-3.7276-4.4185,0-2.9458,1.7569-4.5254,3.8516-4.5254C104.2617,6.0825,105.8057,7.7686,105.8057,10.5015Zm-6.0518.0708c0,1.7392.834,3.3183,2.2715,3.3183,1.4023,0,2.2539-1.5971,2.2539-3.354,0-1.4194-.5859-3.3-2.2539-3.3C100.3926,7.2363,99.7539,9.0283,99.7539,10.5723Z" transform="translate(-1.2598 -2.3384)"/><path d="M114.374,2.3384V12.6841c0,.71.0352,1.5972.0713,2.165h-1.331l-.0713-1.3662H112.99a2.7763,2.7763,0,0,1-2.5732,1.5435c-1.8994,0-3.3369-1.7036-3.3369-4.3653,0-2.9282,1.6328-4.5786,3.4785-4.5786a2.4963,2.4963,0,0,1,2.2891,1.2246h.0361V2.3384Zm-1.49,7.3467a4.09,4.09,0,0,0-.0537-.6387A2.066,2.066,0,0,0,110.86,7.29c-1.4727,0-2.254,1.4726-2.254,3.3007,0,1.7744.7452,3.2119,2.2188,3.2119a2.07,2.07,0,0,0,1.9873-1.7392,2.454,2.454,0,0,0,.0713-.6387Z" transform="translate(-1.2598 -2.3384)"/><path d="M123.3154,12.5068c0,.9048.0352,1.668.0713,2.3423h-1.3135l-.0888-1.26h-.0352a2.8975,2.8975,0,0,1-2.5381,1.437c-1.4023,0-2.6972-.8692-2.6972-3.62V6.26h1.49v4.8974c0,1.544.4258,2.6265,1.6865,2.6265a1.9726,1.9726,0,0,0,1.81-1.3487,2.6793,2.6793,0,0,0,.124-.7983V6.26h1.4912Z" transform="translate(-1.2598 -2.3384)"/><path d="M131.2627,14.5649a5.0916,5.0916,0,0,1-2.165.4439c-2.36,0-3.94-1.686-3.94-4.3652a4.2058,4.2058,0,0,1,4.26-4.543,4.4554,4.4554,0,0,1,1.8809.39l-.337,1.1714a3.42,3.42,0,0,0-1.5615-.355c-1.793,0-2.7158,1.5259-2.7158,3.2652,0,2.0053,1.1182,3.2119,2.6973,3.2119a3.8423,3.8423,0,0,0,1.6328-.355Z" transform="translate(-1.2598 -2.3384)"/><path d="M134.9512,3.8467V6.26H137.01V7.4136h-2.0586v4.7558c0,1.0826.3193,1.5972,1.082,1.5972a2.9974,2.9974,0,0,0,.7988-.0889l.0713,1.1358a3.3107,3.3107,0,0,1-1.2773.1953,2.0457,2.0457,0,0,1-1.58-.6211,3.1753,3.1753,0,0,1-.585-2.2007V7.4136h-1.2421V6.26h1.2421V4.2549Z" transform="translate(-1.2598 -2.3384)"/><path d="M140.2549,3.9a.8937.8937,0,0,1-.94.94.8713.8713,0,0,1-.8868-.94.914.914,0,1,1,1.8272,0Zm-1.668,10.9492V6.26h1.5088v8.5888Z" transform="translate(-1.2598 -2.3384)"/><path d="M149.499,10.5015c0,3.2119-2.0049,4.5249-3.8506,4.5249-2.0937,0-3.7265-1.6148-3.7265-4.4185,0-2.9458,1.7568-4.5254,3.8506-4.5254C147.9551,6.0825,149.499,7.7686,149.499,10.5015Zm-6.0508.0708c0,1.7392.834,3.3183,2.2715,3.3183,1.4014,0,2.2539-1.5971,2.2539-3.354,0-1.4194-.5859-3.3-2.2539-3.3C144.0869,7.2363,143.4482,9.0283,143.4482,10.5723Z" transform="translate(-1.2598 -2.3384)"/><path d="M151.3242,8.5493c0-.9228-.0351-1.58-.07-2.289h1.33l.0713,1.2954h.0537a2.8831,2.8831,0,0,1,2.5732-1.4732c1.1885,0,2.7324.7632,2.7324,3.46v5.3061h-1.49V9.7207c0-1.2778-.4258-2.396-1.7392-2.396a1.9924,1.9924,0,0,0-1.8633,1.544,2.936,2.936,0,0,0-.0889.7456v5.2348h-1.5088Z" transform="translate(-1.2598 -2.3384)"/><path d="M168.2148,14.8491l-.124-1.0293h-.0537a2.7816,2.7816,0,0,1-2.36,1.2066,2.3594,2.3594,0,0,1-2.4483-2.4663c0-2.0943,1.81-3.1768,4.72-3.1592V9.188c0-.834-.23-1.9873-1.7919-1.97a3.625,3.625,0,0,0-1.9874.5859l-.3369-1.0293a5.0216,5.0216,0,0,1,2.5909-.6924c2.36,0,3.0166,1.5972,3.0166,3.39v3.354a14.2009,14.2009,0,0,0,.124,2.0229Zm-.248-4.4009c-1.3848-.018-3.2305.23-3.2305,1.9522a1.3142,1.3142,0,0,0,1.3311,1.49,1.8726,1.8726,0,0,0,1.8457-1.3838,1.57,1.57,0,0,0,.0537-.497Z" transform="translate(-1.2598 -2.3384)"/><path d="M178.3447,12.5068c0,.9048.0362,1.668.0713,2.3423h-1.3135l-.0888-1.26h-.0352a2.8946,2.8946,0,0,1-2.5371,1.437c-1.4023,0-2.6982-.8692-2.6982-3.62V6.26h1.4912v4.8974c0,1.544.4258,2.6265,1.6855,2.6265a1.9729,1.9729,0,0,0,1.8106-1.3487,2.7118,2.7118,0,0,0,.124-.7983V6.26h1.49Z" transform="translate(-1.2598 -2.3384)"/><path d="M184.2861,3.0479A16.83,16.83,0,0,1,187.1436,2.8,5.9363,5.9363,0,0,1,191.3672,4.13a5.6506,5.6506,0,0,1,1.668,4.4546,6.55,6.55,0,0,1-1.6329,4.7734,6.4655,6.4655,0,0,1-4.6845,1.58,19.1994,19.1994,0,0,1-2.4317-.1245Zm1.49,10.6123a8.7068,8.7068,0,0,0,1.2422.0708c2.7685,0,4.455-1.6148,4.455-5.0928.0176-2.8926-1.3847-4.6319-4.2422-4.6319a7.517,7.517,0,0,0-1.455.1241Z" transform="translate(-1.2598 -2.3384)"/><path d="M195.835,10.7852c.0351,2.2714,1.2773,3.0522,2.6621,3.0522a5.0467,5.0467,0,0,0,2.0937-.4082l.2666,1.0825a6.2338,6.2338,0,0,1-2.5732.4971c-2.4668,0-3.9043-1.7393-3.9043-4.33,0-2.644,1.4375-4.5962,3.709-4.5962,2.4843,0,3.1943,2.2715,3.1943,3.9575a6.9054,6.9054,0,0,1-.0361.7452Zm4.0107-1.0826c.0176-1.2065-.48-2.52-1.8994-2.52-1.3838,0-1.9873,1.4019-2.0938,2.52Z" transform="translate(-1.2598 -2.3384)"/><path d="M203.9961,10.7852c.0352,2.2714,1.2773,3.0522,2.6611,3.0522a5.0492,5.0492,0,0,0,2.0948-.4082l.2656,1.0825a6.2339,6.2339,0,0,1-2.5733.4971c-2.4668,0-3.9043-1.7393-3.9043-4.33,0-2.644,1.4375-4.5962,3.709-4.5962,2.4844,0,3.1944,2.2715,3.1944,3.9575a7.2036,7.2036,0,0,1-.0352.7452Zm4.01-1.0826c.0185-1.2065-.4786-2.52-1.8985-2.52-1.3838,0-1.9873,1.4019-2.0937,2.52Z" transform="translate(-1.2598 -2.3384)"/><path d="M211.251,9.0283c0-1.1709-.0362-2.0229-.0713-2.768h1.3486L212.6,7.6089h.0352a2.9648,2.9648,0,0,1,2.68-1.5264c1.8994,0,3.3007,1.7036,3.3007,4.3833,0,3.1236-1.7216,4.5606-3.5312,4.5606a2.5779,2.5779,0,0,1-2.3067-1.2422h-.0361v4.5429h-1.49Zm1.49,2.4312a2.5494,2.5494,0,0,0,.0713.6567,2.0815,2.0815,0,0,0,2.0049,1.7212c1.5088,0,2.2715-1.4194,2.2715-3.3184,0-1.7392-.7451-3.2119-2.2354-3.2119a2.2072,2.2072,0,0,0-2.0234,1.81,2.66,2.66,0,0,0-.0889.6387Z" transform="translate(-1.2598 -2.3384)"/><path d="M223.9883,2.8882h1.49V13.5894h4.5967v1.26h-6.0869Z" transform="translate(-1.2598 -2.3384)"/><path d="M232.2559,10.7852c.0351,2.2714,1.2773,3.0522,2.6621,3.0522a5.0471,5.0471,0,0,0,2.0937-.4082l.2666,1.0825a6.2338,6.2338,0,0,1-2.5732.4971c-2.4668,0-3.9043-1.7393-3.9043-4.33,0-2.644,1.4375-4.5962,3.709-4.5962,2.4843,0,3.1943,2.2715,3.1943,3.9575a6.9054,6.9054,0,0,1-.0361.7452Zm4.0107-1.0826c.0176-1.2065-.48-2.52-1.8994-2.52-1.3838,0-1.9873,1.4019-2.0938,2.52Z" transform="translate(-1.2598 -2.3384)"/><path d="M243.877,14.8491l-.125-1.0293h-.0528a2.7829,2.7829,0,0,1-2.36,1.2066A2.36,2.36,0,0,1,238.89,12.56c0-2.0943,1.8106-3.1768,4.7208-3.1592V9.188c0-.834-.2305-1.9873-1.792-1.97a3.63,3.63,0,0,0-1.9883.5859l-.3369-1.0293a5.024,5.024,0,0,1,2.5908-.6924c2.36,0,3.0166,1.5972,3.0166,3.39v3.354a14.1932,14.1932,0,0,0,.125,2.0229Zm-.2491-4.4009c-1.3838-.018-3.23.23-3.23,1.9522a1.3137,1.3137,0,0,0,1.3311,1.49,1.8742,1.8742,0,0,0,1.8457-1.3838,1.5985,1.5985,0,0,0,.0527-.497Z" transform="translate(-1.2598 -2.3384)"/><path d="M247.44,8.7979c0-.9229-.0351-1.775-.07-2.5376h1.33l.0537,1.5791h.0537a2.4525,2.4525,0,0,1,2.2178-1.7569,2.6819,2.6819,0,0,1,.3906.0357v1.455a1.8752,1.8752,0,0,0-.4619-.0356,2.0645,2.0645,0,0,0-1.9521,1.9346,3.2465,3.2465,0,0,0-.07.7451v4.6318H247.44Z" transform="translate(-1.2598 -2.3384)"/><path d="M252.8164,8.5493c0-.9228-.0361-1.58-.0713-2.289h1.3311l.0713,1.2954H254.2a2.8843,2.8843,0,0,1,2.5732-1.4732c1.19,0,2.7334.7632,2.7334,3.46v5.3061h-1.4912V9.7207c0-1.2778-.4258-2.396-1.7392-2.396a1.9941,1.9941,0,0,0-1.8633,1.544,2.982,2.982,0,0,0-.0889.7456v5.2348h-1.5078Z" transform="translate(-1.2598 -2.3384)"/><path d="M263.5313,3.9a.8937.8937,0,0,1-.94.94.8713.8713,0,0,1-.8867-.94.914.914,0,1,1,1.8272,0Zm-1.668,10.9492V6.26h1.5088v8.5888Z" transform="translate(-1.2598 -2.3384)"/><path d="M265.749,8.5493c0-.9228-.0361-1.58-.0713-2.289h1.3311l.0713,1.2954h.0527a2.8843,2.8843,0,0,1,2.5733-1.4732c1.1894,0,2.7334.7632,2.7334,3.46v5.3061h-1.4913V9.7207c0-1.2778-.4257-2.396-1.7392-2.396a1.9942,1.9942,0,0,0-1.8633,1.544,2.982,2.982,0,0,0-.0889.7456v5.2348H265.749Z" transform="translate(-1.2598 -2.3384)"/><path d="M281.5576,6.26c-.0361.603-.0713,1.33-.0713,2.4487v4.9336c0,2.0762-.373,3.1587-1.1006,3.8686a4.0953,4.0953,0,0,1-2.874.9937,4.9748,4.9748,0,0,1-2.5732-.6211l.3545-1.1538a4.4993,4.4993,0,0,0,2.2539.5859c1.4375,0,2.4668-.7807,2.4668-2.8926v-.9228h-.0362a2.65,2.65,0,0,1-2.413,1.313c-1.9522,0-3.3184-1.7744-3.3184-4.2056,0-2.9814,1.7568-4.5254,3.5312-4.5254a2.553,2.553,0,0,1,2.36,1.3667h.0352l.0537-1.1889Zm-1.5615,3.2475a2.839,2.839,0,0,0-.0713-.6748,2.0058,2.0058,0,0,0-1.917-1.5434c-1.331,0-2.2353,1.2773-2.2353,3.247,0,1.8281.7978,3.1236,2.2177,3.1236a1.98,1.98,0,0,0,1.8994-1.5083,3.1157,3.1157,0,0,0,.1065-.7989Z" transform="translate(-1.2598 -2.3384)"/></g></g></svg>