<svg xmlns="http://www.w3.org/2000/svg" viewBox="0 0 35.4564 35.5388"><path d="M29.0428,11.5771v16.11a3.2073,3.2073,0,0,1-3.2,3.19H8.2828a3.2073,3.2073,0,0,1-3.2-3.19V4.1771a3.2094,3.2094,0,0,1,3.2-3.2h10.21v7.4a3.2094,3.2094,0,0,0,3.2,3.2Z" style="fill:#fff"/><path d="M29.0428,11.5771h-7.35a3.2094,3.2094,0,0,1-3.2-3.2v-7.4H8.2828a3.2094,3.2094,0,0,0-3.2,3.2v23.51a3.2073,3.2073,0,0,0,3.2,3.19h17.56a3.2073,3.2073,0,0,0,3.2-3.19Z" style="fill:none;stroke:#000;stroke-linejoin:round;stroke-width:1.95428428707763px"/><line x1="18.4928" y1="0.9771" x2="29.0628" y2="11.5571" style="fill:none;stroke:#000;stroke-linejoin:round;stroke-width:1.95428428707763px"/><path d="M2.0421,7.1807h12.874a1.6675,1.6675,0,0,1,1.6675,1.6675v6.8394a1.6675,1.6675,0,0,1-1.6675,1.6675H2.0426A1.6675,1.6675,0,0,1,.3751,15.6876v-6.84A1.667,1.667,0,0,1,2.0421,7.1807Z" style="fill:#e12229"/><path d="M14.9161,7.5559a1.2961,1.2961,0,0,1,1.2923,1.2923v6.84A1.2962,1.2962,0,0,1,14.9161,16.98H2.0423A1.2961,1.2961,0,0,1,.75,15.6878v-6.84A1.2961,1.2961,0,0,1,2.0423,7.5559H14.9161m0-.75H2.0423A2.0446,2.0446,0,0,0,0,8.8482v6.84A2.0446,2.0446,0,0,0,2.0423,17.73H14.9161a2.0446,2.0446,0,0,0,2.0423-2.0423v-6.84a2.0446,2.0446,0,0,0-2.0423-2.0423Z" style="fill:#fff"/><path d="M2.2018,9.4488A8.3321,8.3321,0,0,1,3.7179,9.33a2.4056,2.4056,0,0,1,1.6386.46,1.6905,1.6905,0,0,1,.5489,1.3052,1.9307,1.9307,0,0,1-.4917,1.373,2.3388,2.3388,0,0,1-1.6631.5889,2.172,2.172,0,0,1-.3609-.0259v2.09H2.2018Zm1.1879,2.61a1.8559,1.8559,0,0,0,.3443.0253.8858.8858,0,0,0,.9834-.93.8009.8009,0,0,0-.8931-.8614,1.6415,1.6415,0,0,0-.4346.0425Z" style="fill:#fff"/><path d="M6.66,9.4488A9.4157,9.4157,0,0,1,8.1676,9.33a3.0234,3.0234,0,0,1,2.04.5883,2.6953,2.6953,0,0,1,.8687,2.209,3.0427,3.0427,0,0,1-.8687,2.3628,3.3479,3.3479,0,0,1-2.2861.6909A8.5047,8.5047,0,0,1,6.66,15.0958ZM7.856,14.1744a2.3257,2.3257,0,0,0,.36.0171c.9424.0083,1.5981-.6055,1.5981-2.0474,0-1.1855-.5571-1.8423-1.5-1.8423a1.9165,1.9165,0,0,0-.459.0425Z" style="fill:#fff"/><path d="M11.8634,9.3721h3.081v1.0323H13.06v1.373h1.7617v1.0152H13.06v2.3286H11.8634Z" style="fill:#fff"/><path d="M18.941,26.397h3.6729V18.6343a1.1821,1.1821,0,0,1,1.1806-1.1806H30.002a1.1835,1.1835,0,0,1,1.1812,1.1748l.0352,7.7685h3.4028l-7.6367,8.5855Z" style="fill:#e12229"/><path d="M30.0022,17.8286a.8057.8057,0,0,1,.8058.802l.0366,8.1414h2.941l-6.8085,7.6545L19.8062,26.772h3.1826V18.6342a.8056.8056,0,0,1,.8057-.8056h6.2077m0-.75H23.7945a1.5574,1.5574,0,0,0-1.5557,1.5556V26.022h-4.163l1.183,1.2629,7.171,7.6544.5617.5995.546-.6139,6.8084-7.6544,1.1105-1.2485H31.5913l-.0333-7.3949a1.559,1.559,0,0,0-1.5558-1.5485Z" style="fill:#fff"/></svg>