<svg xmlns="http://www.w3.org/2000/svg" viewBox="0 0 36.8447 35.5346"><path d="M19.8818,8.3758V.9771H9.6714A3.2082,3.2082,0,0,0,6.4726,4.1759V27.6783a3.2081,3.2081,0,0,0,3.1988,3.1988H27.2329a3.2082,3.2082,0,0,0,3.1988-3.1988V11.5746H23.0806A3.2082,3.2082,0,0,1,19.8818,8.3758Z" style="fill:none;stroke:#000;stroke-linejoin:round;stroke-width:1.95428428707763px"/><line x1="19.8818" y1="0.9771" x2="30.4555" y2="11.5508" style="fill:none;stroke:#000;stroke-linejoin:round;stroke-width:1.95428428707763px"/><rect y="5.907" width="16.1948" height="17.0887" style="fill:#fff"/><path d="M20.3294,26.3927h3.6728V18.63a1.1821,1.1821,0,0,1,1.1807-1.1806H31.39a1.1834,1.1834,0,0,1,1.1807,1.1757l.0351,7.7676h3.4029l-7.6363,8.586Z" style="fill:#e12229"/><path d="M31.3905,17.8244a.8056.8056,0,0,1,.8057.802l.0367,8.1414h2.9409l-6.8084,7.6545-7.171-7.6545h3.1827V18.63a.8056.8056,0,0,1,.8057-.8056h6.2077m0-.75H25.1828A1.5574,1.5574,0,0,0,23.6271,18.63v7.3878h-4.163l1.183,1.2629,7.171,7.6544.5617.5995.546-.6139,6.8084-7.6544,1.1105-1.2485H32.98l-.0334-7.3949a1.5588,1.5588,0,0,0-1.5557-1.5485Z" style="fill:#fff"/><path d="M13.6929,12.4289C12.5982,6.1627,7.3243,6.71,7.3243,6.71l0,0a5.71,5.71,0,0,0-5.7108,5.7108A7.1617,7.1617,0,0,0,3.8012,17.62v4.5846h6.3847V19.8412h2.0285A1.2317,1.2317,0,0,0,13.4452,18.61v-2.05c.4531-.1023,1.5854-.5277,1.5415-.8977C14.9375,15.24,13.6929,12.4289,13.6929,12.4289Zm-2.7057.5477a1.104,1.104,0,0,1-1.552,0,1.1322,1.1322,0,0,1-.3064-.613H7.6953a.864.864,0,0,1-.3459.4251l.4745,1.7794a.6633.6633,0,0,1,.4448.178.6449.6449,0,0,1,0,.89.6291.6291,0,1,1-.7612-.9886l-.4646-1.74a.8835.8835,0,0,1-.7118-.1977l-1.0972.6327a1.0449,1.0449,0,0,1,.079.3954,1.0963,1.0963,0,1,1-.2372-.6723l1.0478-.603a.8683.8683,0,0,1-.0988-.346l-1.6015-.4251a.6291.6291,0,1,1-.9885-.7612.6451.6451,0,0,1,.89,0,.6737.6737,0,0,1,.1878.4449l1.5421.4152a.9791.9791,0,0,1,.3065-.4448l-.5239-.9095a1.0965,1.0965,0,1,1,.692-1.0182,1.0915,1.0915,0,0,1-.3164.771c-.1878.1879.3164.8008.4449,1.0182a.8586.8586,0,0,1,.85.2274l1.2159-1.1862a.642.642,0,0,1,.0989-.7612.6291.6291,0,0,1,.89.89.642.642,0,0,1-.7612.0988L7.7052,11.731a1.0517,1.0517,0,0,1,.0593.3064H9.1288a1.1674,1.1674,0,0,1,.3064-.6129,1.0975,1.0975,0,0,1,1.552,1.5521Z" style="fill:#e12229"/></svg>