<svg xmlns="http://www.w3.org/2000/svg" viewBox="0 0 35.8683 35.5346"><path d="M18.9054,8.3758V.9771H8.695A3.2082,3.2082,0,0,0,5.4962,4.1759V27.6783A3.2081,3.2081,0,0,0,8.695,30.8771H26.2565a3.2082,3.2082,0,0,0,3.1988-3.1988V11.5746H22.1042A3.2082,3.2082,0,0,1,18.9054,8.3758Z" style="fill:#fff;stroke:#000;stroke-linejoin:round;stroke-width:1.95428428707763px"/><line x1="18.9054" y1="0.9771" x2="29.4791" y2="11.5508" style="fill:#fff;stroke:#000;stroke-linejoin:round;stroke-width:1.95428428707763px"/><path d="M19.353,26.3927h3.6728V18.63a1.1821,1.1821,0,0,1,1.1807-1.1806H30.414a1.1834,1.1834,0,0,1,1.1807,1.1757l.0351,7.7676h3.4029l-7.6363,8.586Z" style="fill:#e12229"/><path d="M30.4141,17.8244a.8056.8056,0,0,1,.8057.802l.0367,8.1414h2.9409L27.389,34.4223l-7.171-7.6545h3.1827V18.63a.8056.8056,0,0,1,.8057-.8056h6.2077m0-.75H24.2064A1.5574,1.5574,0,0,0,22.6507,18.63v7.3878h-4.163l1.183,1.2629,7.171,7.6544.5617.5995.546-.6139,6.8084-7.6544,1.11-1.2485H32.0032L31.97,18.6229a1.5588,1.5588,0,0,0-1.5557-1.5485Z" style="fill:#fff"/><path d="M6.6572,5.9063A6.1461,6.1461,0,0,0,.51,12.0537,7.71,7.71,0,0,0,2.8646,17.65v4.935H9.7374V20.0409H11.921a1.3259,1.3259,0,0,0,1.3249-1.3249V16.5093c.4877-.11,1.7066-.568,1.6594-.9663-.053-.4554-1.3928-3.4811-1.3928-3.4811C12.3342,5.3167,6.6571,5.9062,6.6571,5.9062Z" style="fill:#e12229;stroke:#fff;stroke-miterlimit:10"/><path d="M4.2366,12.7472l1.1279-.6491a.9361.9361,0,0,1-.1064-.3724l-1.7239-.4576A.6772.6772,0,1,1,2.47,10.4487a.6943.6943,0,0,1,.9577,0,.7247.7247,0,0,1,.2022.4789l1.66.4469a1.0535,1.0535,0,0,1,.33-.4788l-.564-.979a1.18,1.18,0,1,1,.7449-1.0961,1.1748,1.1748,0,0,1-.34.83c-.2022.2022.34.862.4789,1.0961a.9242.9242,0,0,1,.9151.2447L8.1632,9.7145A.6909.6909,0,0,1,8.27,8.8951a.6772.6772,0,0,1,.9577.9577.6909.6909,0,0,1-.8194.1064L7.0671,11.3107a1.1313,1.1313,0,0,1,.0639.33H8.6a1.2569,1.2569,0,0,1,.33-.66,1.1814,1.1814,0,1,1,0,1.6707,1.2192,1.2192,0,0,1-.33-.66H7.0565a.93.93,0,0,1-.3725.4576l.5108,1.9154a.7147.7147,0,0,1,.4789.1915.6944.6944,0,0,1,0,.9578A.6772.6772,0,1,1,6.8543,14.45l-.5-1.8728a.9507.9507,0,0,1-.7662-.2128l-1.1812.681a1.1251,1.1251,0,0,1,.0851.4256,1.18,1.18,0,1,1-.2553-.7236Z" style="fill:#fff"/></svg>